<svg width="92" height="104" viewBox="0 0 92 104" fill="none" xmlns="http://www.w3.org/2000/svg">
<path fill-rule="evenodd" clip-rule="evenodd" d="M36.7687 81.8308C37.533 89.0511 40.4267 95.8811 45.0821 101.453C33.7449 108.049 22.7559 98.765 26.4844 88.915C26.4511 88.8322 25.8809 89.566 24.9814 90.7238L24.9813 90.7239C22.678 93.6883 18.2156 99.4316 15.0776 101.359C10.7139 104.038 5.69061 104.788 0.880379 103.104L0.896767 103.088C-0.789909 98.277 -0.0350256 93.2625 2.64237 88.8985C4.57258 85.7523 10.3295 81.2816 13.2899 78.9826L13.29 78.9826C14.4394 78.09 15.1672 77.5248 15.0859 77.4916C5.23596 81.2201 -4.05262 70.2311 2.54404 58.8857C8.10918 63.5539 14.939 66.4582 22.1619 67.2278C25.8816 67.5977 29.6369 67.3457 33.2738 66.4821C35.4337 66.0124 37.5395 65.3221 39.5582 64.4221L39.5671 64.4132L39.5644 64.4193L39.5878 64.4089L39.5538 64.4428C38.6508 66.4593 37.9591 68.5639 37.4898 70.723C36.6415 74.361 36.3979 78.1137 36.7687 81.8308ZM21.6499 -1.47579C27.3247 -5.27809 34.8391 -8.3101 41.5833 -5.62227C51.1177 -1.82815 52.1871 8.66505 51.3185 17.5275C51.327 17.4988 51.3412 17.472 51.3602 17.4488C51.3792 17.4255 51.4026 17.4064 51.4291 17.3923C59.6237 12.6722 59.087 -10.6824 39.9239 -9.64991C39.875 -9.64671 39.8264 -9.65894 39.7849 -9.68486C39.7434 -9.71078 39.7111 -9.74909 39.6925 -9.79437C39.674 -9.83965 39.6701 -9.88962 39.6815 -9.93722C39.6928 -9.98482 39.7189 -10.0276 39.7559 -10.0596C40.2578 -10.5928 40.7053 -11.1748 41.0916 -11.7969C43.2058 -15.4845 38.1457 -15.9639 35.6176 -15.9925C32.2771 -16.0592 28.9425 -15.6803 25.7021 -14.8658C16.2783 -12.3459 3.67911 3.53521 8.08371 13.6064C10.9149 7.48912 16.0939 2.24456 21.6499 -1.47579ZM66.5441 19.3674C55.3256 59.7054 15.254 61.8933 11.4845 26.7958C9.34158 6.58786 36.9861 -3.6636 41.7636 10.5541C43.1433 14.6399 42.136 19.2546 41.2275 23.4169L41.2275 23.417C41.1566 23.7418 41.0864 24.0637 41.0179 24.3825C37.2565 10.7098 29.9756 12.1971 25.5382 16.9745C22.7439 19.9984 23.084 25.0544 24.4525 28.6027C25.2533 30.6511 26.4573 32.5178 27.993 34.0922C29.5288 35.6667 31.3649 36.9168 33.3928 37.7684C37.1418 39.2967 41.5874 38.8009 45.2381 37.2111C48.8109 35.6583 51.5848 32.7697 53.7605 29.6065C57.38 24.3377 59.6384 18.2861 61.8807 12.2774C62.8748 9.61368 63.8658 6.9584 64.9707 4.38352C67.8634 -2.31148 71.5223 -8.986 78.5164 -12.0057C86.3791 -15.4024 95.131 -13.4807 102.916 -10.6495C88.2598 -11.3829 70.1169 6.49363 66.5441 19.3674ZM109.615 62.418C112.307 69.1785 109.271 76.6766 105.473 82.3514C101.756 87.9073 96.5118 93.0863 90.3658 95.9175C100.437 100.322 116.31 87.7229 118.834 78.2991C119.663 75.061 120.05 71.7256 119.985 68.3836C119.965 65.8556 119.485 60.7954 115.798 62.9096C115.172 63.2912 114.59 63.739 114.061 64.2454C114.029 64.2824 113.986 64.3084 113.938 64.3198C113.89 64.3312 113.841 64.3273 113.795 64.3087C113.75 64.2902 113.712 64.2578 113.686 64.2163C113.66 64.1748 113.648 64.1262 113.651 64.0774C114.683 44.9143 91.3246 44.3775 86.6086 52.5721C86.594 52.5998 86.5737 52.624 86.549 52.6431C86.5242 52.6622 86.4956 52.6757 86.4652 52.6828C95.3358 51.8141 105.829 52.8835 109.615 62.418ZM77.2051 92.4836C42.1075 88.7468 44.2627 48.6424 84.6335 37.4568C97.5072 33.8839 115.384 15.741 114.65 1.08496C117.482 8.86985 119.403 17.6217 116.002 25.4803C112.987 32.4703 106.321 36.1538 99.6132 39.0301C97.0378 40.1353 94.382 41.126 91.7177 42.1199C85.7096 44.3611 79.6586 46.6184 74.3902 50.2404C71.223 52.416 68.3303 55.1858 66.7856 58.7628C65.1959 62.4135 64.7001 66.8549 66.2284 70.6081C67.0817 72.6362 68.3333 74.4724 69.9091 76.0081C71.4849 77.5438 73.3528 78.7476 75.4023 79.5484C78.9423 80.9128 84.0066 81.257 87.0304 78.4626C91.7915 74.0252 93.287 66.7443 79.6102 62.983C79.9394 62.9128 80.2722 62.8406 80.6079 62.7678C84.759 61.8677 89.3639 60.8691 93.4427 62.2414C107.66 67.0147 97.413 94.6593 77.2051 92.4836ZM12.7707 50.5643C18.7159 58.763 36.5392 58.0173 45.4918 55.3008C15.1717 73.3863 -8.47384 42.4148 4.95304 39.3131C7.85393 38.6493 9.16917 41.8903 9.90259 44.0455C9.97947 44.2757 10.0549 44.5045 10.1299 44.732C10.8105 46.7957 11.4532 48.7449 12.7707 50.5643ZM48.7 58.5208C45.9753 67.4898 45.2378 85.2967 53.4365 91.2542C55.273 92.5766 57.2349 93.2251 59.3189 93.914L59.319 93.914C59.5272 93.9828 59.7365 94.052 59.9471 94.1223C62.1105 94.8557 65.3515 96.171 64.6877 99.0678C61.5861 112.474 30.6145 88.8368 48.7 58.5208ZM110.64 -6.62608C99.5314 -4.39741 89.3336 1.07509 81.3356 9.09938C73.3133 17.0966 67.8422 27.2929 65.6142 38.3992C76.7135 36.15 86.9039 30.6796 94.9119 22.6716C102.92 14.6636 108.39 4.47327 110.64 -6.62608Z" fill="url(#paint0_linear_95_800)" fill-opacity="0.4"/>
<defs>
<linearGradient id="paint0_linear_95_800" x1="-0.00781252" y1="104" x2="109.742" y2="-5.00001" gradientUnits="userSpaceOnUse">
<stop stop-color="white"/>
<stop offset="1" stop-color="white" stop-opacity="0"/>
</linearGradient>
</defs>
</svg>
