<svg width="98" height="98" viewBox="0 0 98 98" fill="none" xmlns="http://www.w3.org/2000/svg">
<path fill-rule="evenodd" clip-rule="evenodd" d="M73.5374 53.6616C75.066 68.1022 80.8534 81.7622 90.1643 92.9056C67.4898 106.099 45.5118 87.53 52.9689 67.8301C52.9022 67.6644 51.762 69.1319 49.9633 71.4469L49.9632 71.447L49.9628 71.4475L49.9625 71.4478C45.3559 77.3767 36.4312 88.8631 30.1551 92.7171C21.4279 98.0764 11.3812 99.576 1.76077 96.208L1.79352 96.1753C-1.57986 86.554 -0.070097 76.525 5.2847 67.7969C9.14513 61.5045 20.659 52.5632 26.5799 47.9652L26.5801 47.9651C28.8788 46.1799 30.3345 45.0495 30.1717 44.9831C10.4719 52.4402 -8.10528 30.4622 5.08805 7.77133C16.2183 17.1078 29.878 22.9163 44.3239 24.4556C51.7632 25.1954 59.2739 24.6914 66.5476 22.9641C70.8674 22.0247 75.0791 20.6441 79.1166 18.844L79.1343 18.8263L79.1288 18.8386L79.1756 18.8177L79.1077 18.8855C77.3017 22.9185 75.9182 27.1278 74.9796 31.446C73.283 38.7219 72.7958 46.2274 73.5374 53.6616ZM43.2998 -112.952C54.6493 -120.556 69.6783 -126.62 83.1666 -121.245C102.235 -113.656 104.374 -92.6699 102.637 -74.9449C102.654 -75.0025 102.682 -75.056 102.72 -75.1025C102.758 -75.1489 102.805 -75.1873 102.858 -75.2154C119.247 -84.6556 118.174 -131.365 79.8477 -129.3C79.7501 -129.293 79.6529 -129.318 79.5698 -129.37C79.4868 -129.422 79.4222 -129.498 79.3851 -129.589C79.348 -129.679 79.3402 -129.779 79.3629 -129.874C79.3857 -129.97 79.4377 -130.055 79.5118 -130.119C80.5157 -131.186 81.4106 -132.35 82.1832 -133.594C86.4116 -140.969 76.2913 -141.928 71.2352 -141.985C64.5541 -142.118 57.8851 -141.361 51.4043 -139.732C32.5567 -134.692 7.35822 -102.93 16.1674 -82.7872C21.8299 -95.0217 32.1879 -105.511 43.2998 -112.952ZM133.088 -71.2652C110.651 9.41079 30.508 13.7867 22.9689 -56.4084C18.6832 -96.8242 73.9722 -117.327 83.5271 -88.8918C86.2865 -80.7202 84.2721 -71.4908 82.4551 -63.1661L82.455 -63.1659C82.3133 -62.5164 82.1727 -61.8725 82.0357 -61.235C74.5131 -88.5804 59.9512 -85.6058 51.0764 -76.0509C45.4877 -70.0032 46.1679 -59.8911 48.9049 -52.7945C50.5067 -48.6978 52.9146 -44.9643 55.9861 -41.8154C59.0575 -38.6666 62.7299 -36.1664 66.7855 -34.4632C74.2836 -31.4066 83.1748 -32.3981 90.4762 -35.5776C97.6219 -38.6834 103.17 -44.4606 107.521 -50.7869C114.76 -61.3245 119.277 -73.4278 123.761 -85.4451C125.75 -90.7725 127.732 -96.0831 129.941 -101.233C135.727 -114.623 143.045 -127.972 157.033 -134.011C172.758 -140.805 190.262 -136.961 205.832 -131.299C176.52 -132.766 140.234 -97.0127 133.088 -71.2652ZM219.23 14.8359C224.614 28.3571 218.542 43.3532 210.945 54.7027C203.513 65.8146 193.024 76.1726 180.732 81.8351C200.874 90.6443 232.62 65.4459 237.668 46.5983C239.325 40.1219 240.1 33.4512 239.97 26.7673C239.929 21.7112 238.971 11.5909 231.596 15.8193C230.345 16.5824 229.18 17.4781 228.121 18.4907C228.057 18.5648 227.971 18.6169 227.876 18.6396C227.781 18.6623 227.681 18.6546 227.59 18.6175C227.5 18.5803 227.423 18.5157 227.371 18.4327C227.32 18.3496 227.295 18.2524 227.302 18.1548C229.367 -20.1715 182.649 -21.245 173.217 -4.85573C173.188 -4.80038 173.147 -4.75195 173.098 -4.71377C173.048 -4.67558 172.991 -4.64853 172.93 -4.63447C190.672 -6.37172 211.658 -4.23293 219.23 14.8359ZM154.41 74.9673C84.2151 67.4938 88.5254 -12.7151 169.267 -35.0864C195.014 -42.2321 230.768 -78.5179 229.301 -107.83C234.963 -92.2602 238.806 -74.7565 232.005 -59.0393C225.974 -45.0593 212.641 -37.6923 199.227 -31.9397C194.076 -29.7293 188.764 -27.7479 183.435 -25.7602C171.419 -21.2777 159.317 -16.7632 148.78 -9.51923C142.446 -5.16789 136.661 0.37168 133.571 7.52557C130.392 14.827 129.4 23.7099 132.457 31.2162C134.163 35.2724 136.667 38.9449 139.818 42.0162C142.97 45.0876 146.706 47.4953 150.805 49.0969C157.885 51.8257 168.013 52.514 174.061 46.9253C183.583 38.0505 186.574 23.4887 159.22 15.966C159.879 15.8256 160.544 15.6813 161.216 15.5357C169.518 13.7354 178.728 11.7383 186.885 14.4828C215.321 24.0295 194.826 79.3186 154.41 74.9673ZM25.5414 -8.87136C37.4318 7.52606 73.0783 6.03464 90.9836 0.601611C30.3434 36.7726 -16.9477 -25.1705 9.90606 -31.3738C15.7079 -32.7013 18.3383 -26.2194 19.8052 -21.909C19.9589 -21.4486 20.1098 -20.9909 20.2598 -20.536C21.6209 -16.4085 22.9063 -12.5103 25.5414 -8.87136ZM97.4001 7.04169C91.9506 24.9797 90.4756 60.5935 106.873 72.5085C110.546 75.1533 114.47 76.4502 118.638 77.828L118.638 77.828C119.054 77.9656 119.473 78.104 119.894 78.2447C124.221 79.7115 130.703 82.342 129.375 88.1356C123.172 114.948 61.229 67.6736 97.4001 7.04169ZM221.279 -123.252C199.063 -118.795 178.667 -107.85 162.671 -91.8012C146.627 -75.8067 135.684 -55.4141 131.228 -33.2015C153.427 -37.7 173.808 -48.6408 189.824 -64.6568C205.84 -80.6727 216.78 -101.053 221.279 -123.252Z" fill="url(#paint0_linear_34_606)" fill-opacity="0.4"/>
<defs>
<linearGradient id="paint0_linear_34_606" x1="-0.015625" y1="98" x2="219.484" y2="-120" gradientUnits="userSpaceOnUse">
<stop stop-color="white"/>
<stop offset="1" stop-color="white" stop-opacity="0"/>
</linearGradient>
</defs>
</svg>
