<svg width="200" height="200" viewBox="0 0 200 200" fill="none" xmlns="http://www.w3.org/2000/svg">
<path fill-rule="evenodd" clip-rule="evenodd" d="M44.3384 73.553C29.8978 75.0816 16.2377 80.8691 5.09436 90.1799C-8.09897 67.5054 10.47 45.5274 30.1699 52.9845C30.3356 52.9178 28.8681 51.7776 26.5531 49.9789L26.553 49.9788L26.5525 49.9784L26.5522 49.9781C20.6233 45.3716 9.13687 36.4468 5.28283 30.1707C-0.0764468 21.4435 -1.57606 11.3969 1.79192 1.7764L1.82468 1.80914C11.446 -1.56424 21.4749 -0.0544748 30.2031 5.30032C36.4955 9.16075 45.4368 20.6746 50.0347 26.5955L50.0349 26.5957C51.82 28.8944 52.9504 30.3501 53.0169 30.1874C45.5598 10.4875 67.5378 -8.08966 90.2286 5.10366C80.8922 16.2339 75.0837 29.8936 73.5444 44.3395C72.8045 51.7788 73.3086 59.2895 75.0358 66.5633C75.9753 70.883 77.3559 75.0947 79.156 79.1322L79.1737 79.1499L79.1614 79.1444L79.1823 79.1912L79.1145 79.1234C75.0815 77.3173 70.8722 75.9339 66.554 74.9952C59.2781 73.2987 51.7725 72.8114 44.3384 73.553ZM210.952 43.3154C218.556 54.6649 224.62 69.6939 219.244 83.1822C211.656 102.251 190.67 104.39 172.945 102.653C173.002 102.67 173.056 102.698 173.102 102.736C173.149 102.774 173.187 102.821 173.215 102.874C182.656 119.263 229.365 118.19 227.3 79.8633C227.293 79.7657 227.318 79.6685 227.37 79.5854C227.422 79.5024 227.498 79.4378 227.589 79.4007C227.679 79.3635 227.779 79.3558 227.874 79.3785C227.97 79.4013 228.055 79.4533 228.119 79.5274C229.186 80.5313 230.35 81.4262 231.594 82.1988C238.969 86.4272 239.928 76.3069 239.985 71.2508C240.118 64.5697 239.361 57.9007 237.732 51.4199C232.692 32.5723 200.93 7.37382 180.787 16.183C193.022 21.8455 203.511 32.2035 210.952 43.3154ZM169.265 133.104C88.5892 110.667 84.2133 30.5236 154.408 22.9845C194.824 18.6988 215.327 73.9878 186.892 83.5427C178.72 86.3021 169.491 84.2877 161.166 82.4707L161.166 82.4706C160.516 82.3289 159.872 82.1883 159.235 82.0513C186.58 74.5287 183.606 59.9668 174.051 51.092C168.003 45.5033 157.891 46.1835 150.795 48.9205C146.698 50.5223 142.964 52.9302 139.815 56.0017C136.667 59.0731 134.166 62.7455 132.463 66.8011C129.407 74.2992 130.398 83.1904 133.578 90.4918C136.683 97.6375 142.461 103.185 148.787 107.537C159.325 114.776 171.428 119.292 183.445 123.777C188.773 125.765 194.083 127.747 199.233 129.957C212.623 135.742 225.972 143.06 232.011 157.048C238.805 172.774 234.961 190.278 229.299 205.847C230.766 176.535 195.013 140.249 169.265 133.104ZM83.1641 219.245C69.6429 224.629 54.6468 218.557 43.2973 210.961C32.1854 203.528 21.8274 193.039 16.1649 180.747C7.35568 200.89 32.5541 232.636 51.4017 237.683C57.8781 239.341 64.5488 240.116 71.2327 239.986C76.2888 239.945 86.4091 238.986 82.1807 231.611C81.4176 230.36 80.5219 229.196 79.5093 228.137C79.4352 228.073 79.3831 227.987 79.3604 227.892C79.3377 227.797 79.3454 227.697 79.3825 227.606C79.4197 227.516 79.4843 227.439 79.5673 227.387C79.6504 227.335 79.7476 227.311 79.8452 227.317C118.171 229.382 119.245 182.665 102.856 173.233C102.8 173.204 102.752 173.163 102.714 173.114C102.676 173.064 102.649 173.007 102.634 172.946C104.372 190.687 102.233 211.674 83.1641 219.245ZM23.0327 154.426C30.5062 84.2307 110.715 88.5411 133.086 169.283C140.232 195.03 176.518 230.783 205.83 229.316C190.26 234.979 172.757 238.822 157.039 232.021C143.059 225.989 135.692 212.657 129.94 199.242C127.729 194.091 125.748 188.78 123.76 183.451C119.278 171.435 114.763 159.333 107.519 148.796C103.168 142.462 97.6283 136.676 90.4744 133.587C83.173 130.407 74.29 129.416 66.7838 132.472C62.7276 134.179 59.0551 136.682 55.9837 139.834C52.9124 142.985 50.5047 146.721 48.9031 150.82C46.1743 157.9 45.486 168.029 51.0747 174.076C59.9495 183.599 74.5113 186.59 82.034 159.236C82.1744 159.894 82.3187 160.56 82.4643 161.231C84.2646 169.534 86.2617 178.743 83.5172 186.901C73.9705 215.336 18.6814 194.842 23.0327 154.426ZM106.871 25.557C90.4739 37.4474 91.9653 73.094 97.3984 90.9992C61.2273 30.3591 123.17 -16.9321 129.374 9.92167C130.701 15.7235 124.219 18.3539 119.909 19.8208C119.449 19.9745 118.991 20.1254 118.536 20.2754C114.408 21.6365 110.51 22.9219 106.871 25.557ZM90.9583 97.4157C73.0203 91.9662 37.4065 90.4912 25.4915 106.889C22.8466 110.562 21.5497 114.485 20.172 118.653L20.172 118.654C20.0344 119.07 19.8959 119.489 19.7553 119.91C18.2885 124.237 15.658 130.719 9.8644 129.391C-16.9484 123.188 30.3263 61.2446 90.9583 97.4157ZM221.252 221.295C216.795 199.078 205.85 178.683 189.801 162.687C173.807 146.642 153.414 135.7 131.202 131.244C135.7 153.443 146.641 173.823 162.657 189.839C178.673 205.855 199.053 216.796 221.252 221.295Z" fill="url(#paint0_linear_20_248)" fill-opacity="0.2"/>
<defs>
<linearGradient id="paint0_linear_20_248" x1="-8.1962e-06" y1="-3.42121e-08" x2="218" y2="219.5" gradientUnits="userSpaceOnUse">
<stop stop-color="white"/>
<stop offset="1" stop-color="white" stop-opacity="0"/>
</linearGradient>
</defs>
</svg>
