<svg width="98" height="98" viewBox="0 0 98 98" fill="none" xmlns="http://www.w3.org/2000/svg">
<path fill-rule="evenodd" clip-rule="evenodd" d="M53.6616 24.4548C68.1022 22.9262 81.7623 17.1387 92.9056 7.82793C106.099 30.5024 87.53 52.4804 67.8301 45.0233C67.6644 45.09 69.1319 46.2302 71.4469 48.0289L71.447 48.029L71.4475 48.0294L71.4478 48.0297C77.3767 52.6363 88.8631 61.561 92.7172 67.8371C98.0764 76.5643 99.5761 86.6109 96.2081 96.2314L96.1753 96.1987C86.554 99.5721 76.5251 98.0623 67.7969 92.7075C61.5045 88.8471 52.5632 77.3332 47.9653 71.4123L47.9651 71.4121C46.18 69.1134 45.0496 67.6577 44.9831 67.8205C52.4402 87.5203 30.4622 106.097 7.77135 92.9041C17.1078 81.7739 22.9163 68.1142 24.4556 53.6683C25.1955 46.229 24.6914 38.7183 22.9642 31.4446C22.0247 27.1248 20.6441 22.9131 18.844 18.8756L18.8263 18.8579L18.8386 18.8634L18.8177 18.8166L18.8855 18.8844C22.9185 20.6905 27.1278 22.0739 31.446 23.0126C38.7219 24.7092 46.2275 25.1964 53.6616 24.4548ZM-112.952 54.6924C-120.556 43.3429 -126.62 28.314 -121.245 14.8256C-113.656 -4.24325 -92.6699 -6.38202 -74.9449 -4.64477C-75.0025 -4.66179 -75.056 -4.69012 -75.1025 -4.72812C-75.1489 -4.76611 -75.1873 -4.81299 -75.2153 -4.86601C-84.6555 -21.2552 -131.365 -20.1817 -129.3 18.1445C-129.293 18.2421 -129.318 18.3393 -129.37 18.4224C-129.422 18.5054 -129.498 18.57 -129.589 18.6071C-129.679 18.6443 -129.779 18.652 -129.874 18.6293C-129.97 18.6065 -130.055 18.5545 -130.119 18.4804C-131.186 17.4765 -132.35 16.5816 -133.594 15.809C-140.969 11.5806 -141.928 21.7009 -141.985 26.757C-142.118 33.4381 -141.361 40.1071 -139.732 46.5879C-134.692 65.4355 -102.93 90.634 -82.7872 81.8248C-95.0217 76.1623 -105.511 65.8043 -112.952 54.6924ZM-71.2652 -35.096C9.4108 -12.6591 13.7867 67.4842 -56.4084 75.0233C-96.8242 79.3091 -117.327 24.02 -88.8918 14.4651C-80.7201 11.7057 -71.4908 13.7201 -63.166 15.5371L-63.1659 15.5372C-62.5164 15.6789 -61.8725 15.8195 -61.235 15.9565C-88.5804 23.4791 -85.6058 38.041 -76.0508 46.9158C-70.0032 52.5045 -59.8911 51.8243 -52.7945 49.0873C-48.6978 47.4855 -44.9643 45.0776 -41.8154 42.0061C-38.6665 38.9347 -36.1664 35.2623 -34.4632 31.2067C-31.4066 23.7086 -32.3981 14.8174 -35.5776 7.51604C-38.6834 0.370332 -44.4606 -5.17741 -50.7868 -9.52875C-61.3245 -16.7677 -73.4278 -21.2845 -85.4451 -25.7693C-90.7725 -27.7574 -96.0831 -29.7393 -101.233 -31.9492C-114.623 -37.7346 -127.972 -45.0524 -134.011 -59.0406C-140.805 -74.7661 -136.961 -92.2698 -131.299 -107.84C-132.766 -78.5274 -97.0127 -42.2417 -71.2652 -35.096ZM14.8359 -121.238C28.3571 -126.622 43.3532 -120.549 54.7027 -112.953C65.8146 -105.52 76.1726 -95.0313 81.8351 -82.7394C90.6443 -102.882 65.4459 -134.628 46.5983 -139.676C40.1219 -141.333 33.4512 -142.108 26.7673 -141.978C21.7112 -141.937 11.5909 -140.979 15.8193 -133.603C16.5824 -132.353 17.4781 -131.188 18.4907 -130.129C18.5648 -130.065 18.6169 -129.979 18.6396 -129.884C18.6623 -129.789 18.6546 -129.689 18.6175 -129.598C18.5803 -129.508 18.5157 -129.431 18.4327 -129.379C18.3496 -129.327 18.2524 -129.303 18.1548 -129.309C-20.1715 -131.374 -21.2449 -84.6569 -4.85572 -75.2249C-4.80037 -75.1959 -4.75194 -75.1552 -4.71376 -75.1057C-4.67557 -75.0562 -4.64853 -74.999 -4.63446 -74.9381C-6.37172 -92.6795 -4.23293 -113.666 14.8359 -121.238ZM74.9673 -56.418C67.4938 13.7771 -12.7151 9.46675 -35.0864 -71.2748C-42.2321 -97.0223 -78.5179 -132.775 -107.83 -131.309C-92.2602 -136.971 -74.7565 -140.814 -59.0393 -134.013C-45.0593 -127.982 -37.6923 -114.649 -31.9397 -101.234C-29.7293 -96.0835 -27.7479 -90.7718 -25.7602 -85.4433C-21.2777 -73.4271 -16.7632 -61.325 -9.51922 -50.7883C-5.16788 -44.4538 0.37169 -38.6684 7.52558 -35.5791C14.827 -32.3995 23.7099 -31.408 31.2162 -34.4646C35.2724 -36.1713 38.9449 -38.6745 42.0163 -41.8261C45.0876 -44.9776 47.4953 -48.7135 49.0969 -52.8123C51.8257 -59.8925 52.514 -70.021 46.9253 -76.0686C38.0505 -85.5908 23.4887 -88.5818 15.966 -61.2282C15.8256 -61.8867 15.6813 -62.5521 15.5357 -63.2235C13.7354 -71.5257 11.7383 -80.7355 14.4828 -88.8932C24.0295 -117.329 79.3186 -96.8338 74.9673 -56.418ZM-8.87134 72.4508C7.52608 60.5604 6.03465 24.9138 0.601625 7.00862C36.7727 67.6488 -25.1704 114.94 -31.3738 88.0861C-32.7013 82.2843 -26.2193 79.6539 -21.909 78.187C-21.4486 78.0333 -20.9909 77.8824 -20.536 77.7324C-16.4085 76.3713 -12.5103 75.0859 -8.87134 72.4508ZM7.0417 0.592134C24.9797 6.04157 60.5935 7.51657 72.5085 -8.88086C75.1534 -12.5539 76.4503 -16.4775 77.828 -20.6457L77.828 -20.6458C77.9656 -21.0621 78.1041 -21.4809 78.2447 -21.9021C79.7115 -26.2288 82.342 -32.7108 88.1356 -31.3833C114.948 -25.1799 67.6736 36.7632 7.0417 0.592134ZM-123.252 -123.287C-118.795 -101.071 -107.85 -80.6749 -91.8012 -64.6789C-75.8067 -48.6343 -55.414 -37.6923 -33.2015 -33.2362C-37.7 -55.4349 -48.6408 -75.8156 -64.6568 -91.8315C-80.6727 -107.847 -101.053 -118.788 -123.252 -123.287Z" fill="url(#paint0_linear_20_238)" fill-opacity="0.2"/>
<defs>
<linearGradient id="paint0_linear_20_238" x1="98" y1="98.0078" x2="-120" y2="-121.492" gradientUnits="userSpaceOnUse">
<stop stop-color="white"/>
<stop offset="1" stop-color="white" stop-opacity="0"/>
</linearGradient>
</defs>
</svg>
