<svg width="112" height="104" viewBox="0 0 112 104" fill="none" xmlns="http://www.w3.org/2000/svg">
<path fill-rule="evenodd" clip-rule="evenodd" d="M75.2235 81.8308C74.4592 89.0511 71.5655 95.8811 66.9101 101.453C78.2473 108.049 89.2363 98.765 85.5077 88.915C85.5411 88.8322 86.1113 89.566 87.0108 90.7238L87.0109 90.7239C89.3142 93.6883 93.7766 99.4316 96.9146 101.359C101.278 104.038 106.302 104.788 111.112 103.104L111.095 103.088C112.782 98.277 112.027 93.2625 109.35 88.8985C107.42 85.7523 101.663 81.2816 98.7022 78.9826L98.7021 78.9826C97.5528 78.09 96.8249 77.5248 96.9063 77.4916C106.756 81.2201 116.045 70.2311 109.448 58.8857C103.883 63.5539 97.0532 66.4582 89.8302 67.2278C86.1106 67.5977 82.3552 67.3457 78.7183 66.4821C76.5585 66.0124 74.4527 65.3221 72.4339 64.4221L72.425 64.4132L72.4278 64.4193L72.4044 64.4089L72.4384 64.4428C73.3414 66.4593 74.0331 68.5639 74.5024 70.723C75.3507 74.361 75.5943 78.1137 75.2235 81.8308ZM90.3423 -1.47579C84.6675 -5.27809 77.1531 -8.3101 70.4089 -5.62227C60.8745 -1.82815 59.8051 8.66505 60.6737 17.5275C60.6652 17.4988 60.651 17.472 60.632 17.4488C60.613 17.4255 60.5896 17.4064 60.5631 17.3923C52.3685 12.6722 52.9052 -10.6824 72.0683 -9.64991C72.1172 -9.64671 72.1658 -9.65894 72.2073 -9.68486C72.2488 -9.71078 72.2811 -9.74909 72.2996 -9.79437C72.3182 -9.83965 72.3221 -9.88962 72.3107 -9.93722C72.2994 -9.98482 72.2733 -10.0276 72.2363 -10.0596C71.7343 -10.5928 71.2869 -11.1748 70.9006 -11.7969C68.7864 -15.4845 73.8465 -15.9639 76.3746 -15.9925C79.7151 -16.0592 83.0496 -15.6803 86.2901 -14.8658C95.7139 -12.3459 108.313 3.53521 103.908 13.6064C101.077 7.48912 95.8982 2.24456 90.3423 -1.47579ZM45.4481 19.3674C56.6665 59.7054 96.7382 61.8933 100.508 26.7958C102.651 6.58786 75.0061 -3.6636 70.2286 10.5541C68.8489 14.6399 69.8562 19.2546 70.7647 23.4169L70.7647 23.417C70.8356 23.7418 70.9058 24.0637 70.9743 24.3825C74.7356 10.7098 82.0166 12.1971 86.454 16.9745C89.2483 19.9984 88.9082 25.0544 87.5397 28.6027C86.7389 30.6511 85.5349 32.5178 83.9992 34.0922C82.4634 35.6667 80.6272 36.9168 78.5994 37.7684C74.8504 39.2967 70.4048 38.8009 66.7541 37.2111C63.1813 35.6583 60.4074 32.7697 58.2317 29.6065C54.6122 24.3377 52.3538 18.2861 50.1114 12.2774C49.1174 9.61368 48.1264 6.9584 47.0215 4.38352C44.1288 -2.31148 40.4699 -8.986 33.4758 -12.0057C25.613 -15.4024 16.8612 -13.4807 9.07632 -10.6495C23.7324 -11.3829 41.8753 6.49363 45.4481 19.3674ZM2.37724 62.418C-0.314685 69.1785 2.72141 76.6766 6.51962 82.3514C10.2359 87.9073 15.4804 93.0863 21.6264 95.9175C11.5552 100.322 -4.31775 87.7229 -6.84169 78.2991C-7.67053 75.061 -8.05782 71.7256 -7.99304 68.3836C-7.97255 65.8556 -7.49317 60.7954 -3.80559 62.9096C-3.18023 63.2912 -2.59779 63.739 -2.06834 64.2454C-2.03633 64.2824 -1.9935 64.3084 -1.9459 64.3198C-1.8983 64.3312 -1.84833 64.3273 -1.80305 64.3087C-1.75777 64.2902 -1.71947 64.2578 -1.69355 64.2163C-1.66763 64.1748 -1.65541 64.1262 -1.6586 64.0774C-2.69113 44.9143 20.6676 44.3775 25.3836 52.5721C25.3982 52.5998 25.4185 52.624 25.4432 52.6431C25.468 52.6622 25.4966 52.6757 25.527 52.6828C16.6564 51.8141 6.16315 52.8835 2.37724 62.418ZM34.7871 92.4836C69.8847 88.7468 67.7295 48.6424 27.3587 37.4568C14.485 33.8839 -3.3916 15.741 -2.65818 1.08496C-5.48942 8.86985 -7.41105 17.6217 -4.01029 25.4803C-0.994668 32.4703 5.67165 36.1538 12.3789 39.0301C14.9544 40.1353 17.6102 41.126 20.2745 42.1199C26.2826 44.3611 32.3336 46.6184 37.602 50.2404C40.7692 52.416 43.6619 55.1858 45.2066 58.7628C46.7963 62.4135 47.2921 66.8549 45.7638 70.6081C44.9105 72.6362 43.6588 74.4724 42.0831 76.0081C40.5073 77.5438 38.6394 78.7476 36.5899 79.5484C33.0499 80.9128 27.9856 81.257 24.9618 78.4626C20.2007 74.0252 18.7052 66.7443 32.382 62.983C32.0527 62.9128 31.72 62.8406 31.3843 62.7678C27.2332 61.8677 22.6283 60.8691 18.5495 62.2414C4.33183 67.0147 14.5792 94.6593 34.7871 92.4836ZM99.2215 50.5643C93.2763 58.763 75.453 58.0173 66.5004 55.3008C96.8205 73.3863 120.466 42.4148 107.039 39.3131C104.138 38.6493 102.823 41.8903 102.09 44.0455C102.013 44.2757 101.937 44.5045 101.862 44.732C101.182 46.7957 100.539 48.7449 99.2215 50.5643ZM63.2921 58.5208C66.0169 67.4898 66.7544 85.2967 58.5557 91.2542C56.7191 92.5766 54.7573 93.2251 52.6733 93.914L52.6732 93.914C52.465 93.9828 52.2556 94.052 52.045 94.1223C49.8817 94.8557 46.6407 96.171 47.3045 99.0678C50.4061 112.474 81.3777 88.8368 63.2921 58.5208ZM1.35269 -6.62608C12.4608 -4.39741 22.6586 1.07509 30.6566 9.09938C38.6789 17.0966 44.1499 27.2929 46.378 38.3992C35.2786 36.15 25.0883 30.6796 17.0803 22.6716C9.07236 14.6636 3.60195 4.47327 1.35269 -6.62608Z" fill="url(#paint0_linear_95_813)" fill-opacity="0.4"/>
<defs>
<linearGradient id="paint0_linear_95_813" x1="112" y1="104" x2="2.24999" y2="-5.00001" gradientUnits="userSpaceOnUse">
<stop stop-color="white"/>
<stop offset="1" stop-color="white" stop-opacity="0"/>
</linearGradient>
</defs>
</svg>
