<svg width="20" height="18" viewBox="0 0 20 18" fill="none" xmlns="http://www.w3.org/2000/svg">
<path fill-rule="evenodd" clip-rule="evenodd" d="M16.5941 16.9193L19.9882 1.29313C20.0756 0.890162 19.6619 0.553983 19.261 0.702383L0.347935 7.68576C-0.118856 7.85786 -0.114856 8.49042 0.353269 8.65826L4.96169 10.3045L6.74542 15.7951C6.85958 16.1465 7.30885 16.2766 7.60694 16.0432L10.1758 14.039C10.4451 13.8288 10.8286 13.8184 11.1099 14.0139L15.7432 17.2336C16.0621 17.4554 16.5141 17.2882 16.5941 16.9193ZM6.45811 9.4282L15.4647 4.11891C15.6264 4.02381 15.793 4.23328 15.6539 4.35664L8.22096 10.9698C7.95962 11.2024 7.79118 11.5141 7.74337 11.8523L7.49029 13.6482C7.45658 13.8879 7.10484 13.9116 7.03557 13.6796L6.06179 10.4047C5.95043 10.0311 6.1129 9.63208 6.45811 9.4282Z" fill="white"/>
</svg>
