<svg width="165" height="60" viewBox="0 0 165 60" fill="none" xmlns="http://www.w3.org/2000/svg">
<path d="M85.4733 24.154C84.4027 24.154 83.4347 23.9707 82.5693 23.604C81.7187 23.2373 81.044 22.7093 80.5453 22.02C80.0467 21.3307 79.79 20.5167 79.7753 19.578H83.0753C83.1193 20.2087 83.3393 20.7073 83.7353 21.074C84.146 21.4407 84.7033 21.624 85.4073 21.624C86.126 21.624 86.6907 21.4553 87.1013 21.118C87.512 20.766 87.7173 20.3113 87.7173 19.754C87.7173 19.2993 87.578 18.9253 87.2993 18.632C87.0207 18.3387 86.6687 18.1113 86.2433 17.95C85.8327 17.774 85.2607 17.5833 84.5273 17.378C83.53 17.0847 82.716 16.7987 82.0853 16.52C81.4693 16.2267 80.934 15.794 80.4793 15.222C80.0393 14.6353 79.8193 13.858 79.8193 12.89C79.8193 11.9807 80.0467 11.1887 80.5013 10.514C80.956 9.83933 81.594 9.326 82.4153 8.974C83.2367 8.60733 84.1753 8.424 85.2313 8.424C86.8153 8.424 88.0987 8.81267 89.0813 9.59C90.0787 10.3527 90.6287 11.4233 90.7313 12.802H87.3433C87.314 12.274 87.0867 11.8413 86.6613 11.504C86.2507 11.152 85.7007 10.976 85.0113 10.976C84.41 10.976 83.926 11.13 83.5593 11.438C83.2073 11.746 83.0313 12.1933 83.0313 12.78C83.0313 13.1907 83.1633 13.5353 83.4273 13.814C83.706 14.078 84.0433 14.298 84.4393 14.474C84.85 14.6353 85.422 14.826 86.1553 15.046C87.1527 15.3393 87.9667 15.6327 88.5973 15.926C89.228 16.2193 89.7707 16.6593 90.2253 17.246C90.68 17.8327 90.9073 18.6027 90.9073 19.556C90.9073 20.3773 90.6947 21.14 90.2693 21.844C89.844 22.548 89.2207 23.1127 88.3993 23.538C87.578 23.9487 86.6027 24.154 85.4733 24.154ZM104.908 17.642C104.908 18.082 104.878 18.478 104.82 18.83H95.9096C95.9829 19.71 96.2909 20.3993 96.8336 20.898C97.3762 21.3967 98.0436 21.646 98.8356 21.646C99.9796 21.646 100.794 21.1547 101.278 20.172H104.6C104.248 21.3453 103.573 22.3133 102.576 23.076C101.578 23.824 100.354 24.198 98.9016 24.198C97.7282 24.198 96.6722 23.9413 95.7336 23.428C94.8096 22.9 94.0836 22.1593 93.5556 21.206C93.0422 20.2527 92.7856 19.1527 92.7856 17.906C92.7856 16.6447 93.0422 15.5373 93.5556 14.584C94.0689 13.6307 94.7876 12.8973 95.7116 12.384C96.6356 11.8707 97.6989 11.614 98.9016 11.614C100.06 11.614 101.094 11.8633 102.004 12.362C102.928 12.8607 103.639 13.572 104.138 14.496C104.651 15.4053 104.908 16.454 104.908 17.642ZM101.718 16.762C101.703 15.97 101.417 15.3393 100.86 14.87C100.302 14.386 99.6202 14.144 98.8136 14.144C98.0509 14.144 97.4056 14.3787 96.8776 14.848C96.3642 15.3027 96.0489 15.9407 95.9316 16.762H101.718ZM110.236 13.704C110.632 13.0587 111.145 12.5527 111.776 12.186C112.421 11.8193 113.154 11.636 113.976 11.636V14.87H113.162C112.194 14.87 111.46 15.0973 110.962 15.552C110.478 16.0067 110.236 16.7987 110.236 17.928V24H107.156V11.812H110.236V13.704ZM121.132 21.162L124.212 11.812H127.49L122.98 24H119.24L114.752 11.812H118.052L121.132 21.162ZM130.782 10.36C130.239 10.36 129.785 10.1913 129.418 9.854C129.066 9.502 128.89 9.06933 128.89 8.556C128.89 8.04267 129.066 7.61733 129.418 7.28C129.785 6.928 130.239 6.752 130.782 6.752C131.325 6.752 131.772 6.928 132.124 7.28C132.491 7.61733 132.674 8.04267 132.674 8.556C132.674 9.06933 132.491 9.502 132.124 9.854C131.772 10.1913 131.325 10.36 130.782 10.36ZM132.3 11.812V24H129.22V11.812H132.3ZM140.007 24.198C139.01 24.198 138.115 24.022 137.323 23.67C136.531 23.3033 135.901 22.812 135.431 22.196C134.977 21.58 134.727 20.898 134.683 20.15H137.785C137.844 20.6193 138.071 21.008 138.467 21.316C138.878 21.624 139.384 21.778 139.985 21.778C140.572 21.778 141.027 21.6607 141.349 21.426C141.687 21.1913 141.855 20.8907 141.855 20.524C141.855 20.128 141.65 19.8347 141.239 19.644C140.843 19.4387 140.205 19.2187 139.325 18.984C138.416 18.764 137.668 18.5367 137.081 18.302C136.509 18.0673 136.011 17.708 135.585 17.224C135.175 16.74 134.969 16.0873 134.969 15.266C134.969 14.5913 135.16 13.9753 135.541 13.418C135.937 12.8607 136.495 12.4207 137.213 12.098C137.947 11.7753 138.805 11.614 139.787 11.614C141.239 11.614 142.398 11.9807 143.263 12.714C144.129 13.4327 144.605 14.408 144.693 15.64H141.745C141.701 15.156 141.496 14.7747 141.129 14.496C140.777 14.2027 140.301 14.056 139.699 14.056C139.142 14.056 138.709 14.1587 138.401 14.364C138.108 14.5693 137.961 14.8553 137.961 15.222C137.961 15.6327 138.167 15.948 138.577 16.168C138.988 16.3733 139.626 16.586 140.491 16.806C141.371 17.026 142.097 17.2533 142.669 17.488C143.241 17.7227 143.733 18.0893 144.143 18.588C144.569 19.072 144.789 19.7173 144.803 20.524C144.803 21.228 144.605 21.8587 144.209 22.416C143.828 22.9733 143.271 23.4133 142.537 23.736C141.819 24.044 140.975 24.198 140.007 24.198ZM83.2513 49.558H88.3113V52H80.1713V36.644H83.2513V49.558ZM95.681 52.198C94.5076 52.198 93.4516 51.9413 92.513 51.428C91.5743 50.9 90.8336 50.1593 90.291 49.206C89.763 48.2527 89.499 47.1527 89.499 45.906C89.499 44.6593 89.7703 43.5593 90.313 42.606C90.8703 41.6527 91.6256 40.9193 92.579 40.406C93.5323 39.878 94.5956 39.614 95.769 39.614C96.9423 39.614 98.0056 39.878 98.959 40.406C99.9123 40.9193 100.66 41.6527 101.203 42.606C101.76 43.5593 102.039 44.6593 102.039 45.906C102.039 47.1527 101.753 48.2527 101.181 49.206C100.624 50.1593 99.861 50.9 98.893 51.428C97.9396 51.9413 96.869 52.198 95.681 52.198ZM95.681 49.514C96.2383 49.514 96.759 49.382 97.243 49.118C97.7416 48.8393 98.1376 48.4287 98.431 47.886C98.7243 47.3433 98.871 46.6833 98.871 45.906C98.871 44.7473 98.563 43.86 97.947 43.244C97.3456 42.6133 96.605 42.298 95.725 42.298C94.845 42.298 94.1043 42.6133 93.503 43.244C92.9163 43.86 92.623 44.7473 92.623 45.906C92.623 47.0647 92.909 47.9593 93.481 48.59C94.0676 49.206 94.801 49.514 95.681 49.514ZM109.072 39.614C109.982 39.614 110.781 39.7973 111.47 40.164C112.16 40.516 112.702 40.978 113.098 41.55V39.812H116.2V52.088C116.2 53.2173 115.973 54.222 115.518 55.102C115.064 55.9967 114.382 56.7007 113.472 57.214C112.563 57.742 111.463 58.006 110.172 58.006C108.442 58.006 107.019 57.6027 105.904 56.796C104.804 55.9893 104.181 54.8893 104.034 53.496H107.092C107.254 54.0533 107.598 54.4933 108.126 54.816C108.669 55.1533 109.322 55.322 110.084 55.322C110.979 55.322 111.705 55.0507 112.262 54.508C112.82 53.98 113.098 53.1733 113.098 52.088V50.196C112.702 50.768 112.152 51.2447 111.448 51.626C110.759 52.0073 109.967 52.198 109.072 52.198C108.046 52.198 107.107 51.934 106.256 51.406C105.406 50.878 104.731 50.1373 104.232 49.184C103.748 48.216 103.506 47.1087 103.506 45.862C103.506 44.63 103.748 43.5373 104.232 42.584C104.731 41.6307 105.398 40.8973 106.234 40.384C107.085 39.8707 108.031 39.614 109.072 39.614ZM113.098 45.906C113.098 45.158 112.952 44.52 112.658 43.992C112.365 43.4493 111.969 43.0387 111.47 42.76C110.972 42.4667 110.436 42.32 109.864 42.32C109.292 42.32 108.764 42.4593 108.28 42.738C107.796 43.0167 107.4 43.4273 107.092 43.97C106.799 44.498 106.652 45.1287 106.652 45.862C106.652 46.5953 106.799 47.2407 107.092 47.798C107.4 48.3407 107.796 48.7587 108.28 49.052C108.779 49.3453 109.307 49.492 109.864 49.492C110.436 49.492 110.972 49.3527 111.47 49.074C111.969 48.7807 112.365 48.37 112.658 47.842C112.952 47.2993 113.098 46.654 113.098 45.906ZM120.77 38.36C120.228 38.36 119.773 38.1913 119.406 37.854C119.054 37.502 118.878 37.0693 118.878 36.556C118.878 36.0427 119.054 35.6173 119.406 35.28C119.773 34.928 120.228 34.752 120.77 34.752C121.313 34.752 121.76 34.928 122.112 35.28C122.479 35.6173 122.662 36.0427 122.662 36.556C122.662 37.0693 122.479 37.502 122.112 37.854C121.76 38.1913 121.313 38.36 120.77 38.36ZM122.288 39.812V52H119.208V39.812H122.288ZM129.995 52.198C128.998 52.198 128.103 52.022 127.311 51.67C126.519 51.3033 125.889 50.812 125.419 50.196C124.965 49.58 124.715 48.898 124.671 48.15H127.773C127.832 48.6193 128.059 49.008 128.455 49.316C128.866 49.624 129.372 49.778 129.973 49.778C130.56 49.778 131.015 49.6607 131.337 49.426C131.675 49.1913 131.843 48.8907 131.843 48.524C131.843 48.128 131.638 47.8347 131.227 47.644C130.831 47.4387 130.193 47.2187 129.313 46.984C128.404 46.764 127.656 46.5367 127.069 46.302C126.497 46.0673 125.999 45.708 125.573 45.224C125.163 44.74 124.957 44.0873 124.957 43.266C124.957 42.5913 125.148 41.9753 125.529 41.418C125.925 40.8607 126.483 40.4207 127.201 40.098C127.935 39.7753 128.793 39.614 129.775 39.614C131.227 39.614 132.386 39.9807 133.251 40.714C134.117 41.4327 134.593 42.408 134.681 43.64H131.733C131.689 43.156 131.484 42.7747 131.117 42.496C130.765 42.2027 130.289 42.056 129.687 42.056C129.13 42.056 128.697 42.1587 128.389 42.364C128.096 42.5693 127.949 42.8553 127.949 43.222C127.949 43.6327 128.155 43.948 128.565 44.168C128.976 44.3733 129.614 44.586 130.479 44.806C131.359 45.026 132.085 45.2533 132.657 45.488C133.229 45.7227 133.721 46.0893 134.131 46.588C134.557 47.072 134.777 47.7173 134.791 48.524C134.791 49.228 134.593 49.8587 134.197 50.416C133.816 50.9733 133.259 51.4133 132.525 51.736C131.807 52.044 130.963 52.198 129.995 52.198ZM140.906 42.342V48.238C140.906 48.6487 141.001 48.9493 141.192 49.14C141.397 49.316 141.734 49.404 142.204 49.404H143.634V52H141.698C139.102 52 137.804 50.7387 137.804 48.216V42.342H136.352V39.812H137.804V36.798H140.906V39.812H143.634V42.342H140.906ZM147.411 38.36C146.868 38.36 146.414 38.1913 146.047 37.854C145.695 37.502 145.519 37.0693 145.519 36.556C145.519 36.0427 145.695 35.6173 146.047 35.28C146.414 34.928 146.868 34.752 147.411 34.752C147.954 34.752 148.401 34.928 148.753 35.28C149.12 35.6173 149.303 36.0427 149.303 36.556C149.303 37.0693 149.12 37.502 148.753 37.854C148.401 38.1913 147.954 38.36 147.411 38.36ZM148.929 39.812V52H145.849V39.812H148.929ZM151.18 45.906C151.18 44.6447 151.437 43.5447 151.95 42.606C152.463 41.6527 153.175 40.9193 154.084 40.406C154.993 39.878 156.035 39.614 157.208 39.614C158.719 39.614 159.965 39.9953 160.948 40.758C161.945 41.506 162.613 42.562 162.95 43.926H159.628C159.452 43.398 159.151 42.9873 158.726 42.694C158.315 42.386 157.802 42.232 157.186 42.232C156.306 42.232 155.609 42.5547 155.096 43.2C154.583 43.8307 154.326 44.7327 154.326 45.906C154.326 47.0647 154.583 47.9667 155.096 48.612C155.609 49.2427 156.306 49.558 157.186 49.558C158.433 49.558 159.247 49.0007 159.628 47.886H162.95C162.613 49.206 161.945 50.2547 160.948 51.032C159.951 51.8093 158.704 52.198 157.208 52.198C156.035 52.198 154.993 51.9413 154.084 51.428C153.175 50.9 152.463 50.1667 151.95 49.228C151.437 48.2747 151.18 47.1673 151.18 45.906Z" fill="#10002F"/>
<path d="M16.1169 24.154C15.0462 24.154 14.0782 23.9707 13.2129 23.604C12.3622 23.2373 11.6875 22.7093 11.1889 22.02C10.6902 21.3307 10.4335 20.5167 10.4189 19.578H13.7189C13.7629 20.2087 13.9829 20.7073 14.3789 21.074C14.7895 21.4407 15.3469 21.624 16.0509 21.624C16.7695 21.624 17.3342 21.4553 17.7449 21.118C18.1555 20.766 18.3609 20.3113 18.3609 19.754C18.3609 19.2993 18.2215 18.9253 17.9429 18.632C17.6642 18.3387 17.3122 18.1113 16.8869 17.95C16.4762 17.774 15.9042 17.5833 15.1709 17.378C14.1735 17.0847 13.3595 16.7987 12.7289 16.52C12.1129 16.2267 11.5775 15.794 11.1229 15.222C10.6829 14.6353 10.4629 13.858 10.4629 12.89C10.4629 11.9807 10.6902 11.1887 11.1449 10.514C11.5995 9.83933 12.2375 9.326 13.0589 8.974C13.8802 8.60733 14.8189 8.424 15.8749 8.424C17.4589 8.424 18.7422 8.81267 19.7249 9.59C20.7222 10.3527 21.2722 11.4233 21.3749 12.802H17.9869C17.9575 12.274 17.7302 11.8413 17.3049 11.504C16.8942 11.152 16.3442 10.976 15.6549 10.976C15.0535 10.976 14.5695 11.13 14.2029 11.438C13.8509 11.746 13.6749 12.1933 13.6749 12.78C13.6749 13.1907 13.8069 13.5353 14.0709 13.814C14.3495 14.078 14.6869 14.298 15.0829 14.474C15.4935 14.6353 16.0655 14.826 16.7989 15.046C17.7962 15.3393 18.6102 15.6327 19.2409 15.926C19.8715 16.2193 20.4142 16.6593 20.8689 17.246C21.3235 17.8327 21.5509 18.6027 21.5509 19.556C21.5509 20.3773 21.3382 21.14 20.9129 21.844C20.4875 22.548 19.8642 23.1127 19.0429 23.538C18.2215 23.9487 17.2462 24.154 16.1169 24.154Z" fill="#FF0533"/>
<path d="M16.1169 52.154C15.0462 52.154 14.0782 51.9707 13.2129 51.604C12.3622 51.2373 11.6875 50.7093 11.1889 50.02C10.6902 49.3307 10.4335 48.5167 10.4189 47.578H13.7189C13.7629 48.2087 13.9829 48.7073 14.3789 49.074C14.7895 49.4407 15.3469 49.624 16.0509 49.624C16.7695 49.624 17.3342 49.4553 17.7449 49.118C18.1555 48.766 18.3609 48.3113 18.3609 47.754C18.3609 47.2993 18.2215 46.9253 17.9429 46.632C17.6642 46.3387 17.3122 46.1113 16.8869 45.95C16.4762 45.774 15.9042 45.5833 15.1709 45.378C14.1735 45.0847 13.3595 44.7987 12.7289 44.52C12.1129 44.2267 11.5775 43.794 11.1229 43.222C10.6829 42.6353 10.4629 41.858 10.4629 40.89C10.4629 39.9807 10.6902 39.1887 11.1449 38.514C11.5995 37.8393 12.2375 37.326 13.0589 36.974C13.8802 36.6073 14.8189 36.424 15.8749 36.424C17.4589 36.424 18.7422 36.8127 19.7249 37.59C20.7222 38.3527 21.2722 39.4233 21.3749 40.802H17.9869C17.9575 40.274 17.7302 39.8413 17.3049 39.504C16.8942 39.152 16.3442 38.976 15.6549 38.976C15.0535 38.976 14.5695 39.13 14.2029 39.438C13.8509 39.746 13.6749 40.1933 13.6749 40.78C13.6749 41.1907 13.8069 41.5353 14.0709 41.814C14.3495 42.078 14.6869 42.298 15.0829 42.474C15.4935 42.6353 16.0655 42.826 16.7989 43.046C17.7962 43.3393 18.6102 43.6327 19.2409 43.926C19.8715 44.2193 20.4142 44.6593 20.8689 45.246C21.3235 45.8327 21.5509 46.6027 21.5509 47.556C21.5509 48.3773 21.3382 49.14 20.9129 49.844C20.4875 50.548 19.8642 51.1127 19.0429 51.538C18.2215 51.9487 17.2462 52.154 16.1169 52.154Z" fill="#FF0533"/>
<path d="M51.4917 8.644L45.8597 24H42.1197L36.4877 8.644H39.7877L44.0117 20.854L48.2137 8.644H51.4917Z" fill="#FF0533"/>
<path d="M43.5492 49.558H48.6092V52H40.4692V36.644H43.5492V49.558Z" fill="#FF0533"/>
<rect x="2.49023" y="2.21826" width="56" height="56" stroke="#FF0533" stroke-width="3"/>
<rect x="2.49023" y="2.21826" width="28" height="28" stroke="#FF0533" stroke-width="3"/>
<rect x="2.49023" y="30" width="28" height="28" stroke="#FF0533" stroke-width="3"/>
<rect x="30" y="2.21826" width="28" height="28" stroke="#FF0533" stroke-width="3"/>
<rect x="30" y="30" width="28" height="28" stroke="#FF0533" stroke-width="3"/>
</svg>
