<svg width="80" height="80" viewBox="0 0 80 80" fill="none" xmlns="http://www.w3.org/2000/svg">
<path fill-rule="evenodd" clip-rule="evenodd" d="M38.3884 8.29458C37.9966 6.75817 38.0179 5.1455 38.4502 3.61997C38.551 3.27236 38.6705 2.93041 38.808 2.59559C39.1245 1.82126 39.5264 1.08464 40.0063 0.39941C40.4862 1.08418 40.8873 1.8209 41.202 2.59559C41.3378 2.93039 41.4551 3.27236 41.5535 3.61997C41.9858 5.1455 42.0071 6.75817 41.6153 8.29458C41.2982 9.49115 40.755 10.616 40.0151 11.6084L40.0037 11.6235L39.9924 11.6084C39.2519 10.6158 38.7075 9.49111 38.3884 8.29458ZM37.0994 8.67634C35.6461 7.52001 33.8521 6.8752 31.9952 6.84178C30.9645 6.82288 29.9489 6.96778 29.038 7.47304C28.2105 7.95384 27.5484 8.67437 27.1391 9.53944C27.8296 9.02662 28.6045 8.65744 29.4752 8.97622C30.0832 9.1988 30.551 9.66781 31.0117 10.1298C31.2317 10.3504 31.4501 10.5694 31.6814 10.7591C32.1154 11.1304 32.651 11.3627 33.2186 11.4257C33.6268 11.4655 34.0342 11.4093 34.4389 11.3536C34.5464 11.3388 34.6538 11.324 34.7609 11.311C35.464 11.2266 36.2048 11.248 36.8563 11.5542C37.8202 12.0078 38.2511 13.0511 38.4741 14.0326C38.646 14.0337 38.8177 14.0232 38.9882 14.0011C39.1117 13.9872 39.2301 13.9709 39.3561 13.952C39.4267 12.8419 39.3473 11.7608 38.8269 10.7528C38.4001 9.94918 37.812 9.24227 37.0994 8.67634ZM23.0879 23.693L21.5275 22.2707C21.3231 22.2516 21.1157 22.2312 20.9063 22.2105L20.906 22.2104L20.9057 22.2104L20.9053 22.2104C18.6514 21.9876 16.1582 21.7412 14.5039 23.0404C13.172 23.814 12.3707 25.7557 13.6647 27.0497C13.8714 27.2759 14.1218 27.4579 14.4008 27.5847C14.6798 27.7114 14.9816 27.7804 15.2879 27.7873C15.5943 27.7942 15.8989 27.7389 16.1833 27.6248C16.4677 27.5108 16.7261 27.3402 16.9428 27.1236C17.1594 26.9069 17.33 26.6485 17.444 26.3641C17.5581 26.0797 17.6134 25.7751 17.6065 25.4687C17.5996 25.1624 17.5306 24.8606 17.4039 24.5816C17.2771 24.3026 17.0951 24.0522 16.8689 23.8455L16.8638 23.8505C16.8118 23.7985 16.7625 23.7577 16.7192 23.7218C16.5894 23.6143 16.512 23.5502 16.5677 23.3566C17.166 23.5515 17.7096 23.8852 18.1541 24.3306C22.2025 28.3802 15.8281 34.015 11.1623 29.3504C8.92583 27.1139 8.97119 23.4436 11.2631 21.1516C13.2089 19.2059 16.9428 19.5045 19.5631 20.48L17.578 18.6705C16.4456 19.2836 14.9454 19.0631 13.9242 18.042C13.835 17.9532 13.7508 17.8594 13.6722 17.761C14.5076 17.5985 15.4577 17.0806 16.2716 16.2666C17.0856 15.4527 17.6035 14.5077 17.766 13.6673C17.8649 13.7453 17.9595 13.8286 18.0495 13.9167C19.075 14.9454 19.2947 16.4538 18.6709 17.5862L20.5501 19.7347C19.5194 17.1082 19.1627 13.248 21.1567 11.2581C23.4486 8.96614 27.119 8.92078 29.3555 11.1573C34.0175 15.8193 28.3853 22.1974 24.3356 18.149C23.8903 17.7046 23.5565 17.161 23.3617 16.5627C23.5517 16.5066 23.6178 16.5853 23.728 16.7166C23.7639 16.7593 23.8045 16.8077 23.8556 16.8588C24.0623 17.085 24.3127 17.267 24.5917 17.3938C24.8707 17.5205 25.1725 17.5895 25.4788 17.5964C25.7852 17.6033 26.0898 17.548 26.3742 17.4339C26.6586 17.3199 26.917 17.1493 27.1336 16.9327C27.3503 16.716 27.5209 16.4576 27.6349 16.1732C27.749 15.8888 27.8043 15.5842 27.7973 15.2778C27.7904 14.9715 27.7215 14.6697 27.5948 14.3907C27.468 14.1117 27.286 13.8613 27.0598 13.6546C25.7657 12.3606 23.8241 13.1619 23.0504 14.4938C21.7471 16.1449 21.9955 18.6411 22.2194 20.8923L22.2194 20.8924L22.2195 20.8928C22.2479 21.1785 22.2759 21.4602 22.3004 21.7358L23.5822 23.2014C23.9021 22.8889 24.2301 22.5863 24.5658 22.2939C26.47 20.634 28.6433 19.2799 31.0117 18.299C36.0323 16.2194 41.6187 15.945 46.819 17.5226C50.3999 18.6088 53.6451 20.527 56.3048 23.0915L57.7267 21.5313C57.7463 21.3221 57.7674 21.1098 57.7887 20.8954C58.0129 18.6441 58.2606 16.1558 56.9571 14.5038C56.1835 13.172 54.2418 12.3707 52.9478 13.6647C52.7216 13.8714 52.5396 14.1218 52.4128 14.4008C52.2861 14.6798 52.2171 14.9816 52.2102 15.2879C52.2033 15.5943 52.2586 15.8989 52.3727 16.1833C52.4867 16.4677 52.6573 16.7261 52.8739 16.9427C53.0906 17.1594 53.349 17.33 53.6334 17.444C53.9178 17.5581 54.2224 17.6134 54.5288 17.6065C54.8351 17.5996 55.1369 17.5306 55.4159 17.4039C55.6949 17.2771 55.9453 17.0951 56.152 16.8689L56.1495 16.8638C56.2014 16.8119 56.2421 16.7629 56.278 16.7196C56.3861 16.5896 56.4505 16.5119 56.6434 16.5677C56.449 17.1662 56.1152 17.7099 55.6694 18.1541C51.621 22.2025 45.9901 15.8281 50.6521 11.1623C52.8886 8.92582 56.5602 8.97118 58.8522 11.2631C60.798 13.2089 60.4985 16.9431 59.5201 19.5633L61.3296 17.5778C60.7175 16.4462 60.9372 14.9462 61.9581 13.9242C62.0476 13.8353 62.1418 13.7512 62.2403 13.6722C62.4016 14.5076 62.9182 15.4577 63.7334 16.2716C64.5487 17.0856 65.4924 17.6034 66.3328 17.766C66.2548 17.8649 66.1715 17.9595 66.0833 18.0495C65.0561 19.0747 63.5468 19.2937 62.4147 18.6712L60.2687 20.5478C62.8951 19.5189 66.751 19.1642 68.7394 21.1567C71.0314 23.4486 71.0767 27.119 68.8402 29.3555C64.1782 34.0175 57.8001 28.3853 61.8497 24.3356C62.2935 23.8901 62.8368 23.5562 63.4348 23.3617C63.4909 23.5517 63.4122 23.6178 63.2809 23.728C63.2381 23.7639 63.1898 23.8045 63.1387 23.8556C62.9125 24.0623 62.7305 24.3127 62.6037 24.5917C62.4769 24.8707 62.408 25.1725 62.4011 25.4788C62.3942 25.7852 62.4495 26.0898 62.5635 26.3742C62.6776 26.6586 62.8481 26.917 63.0648 27.1336C63.2815 27.3503 63.5399 27.5209 63.8243 27.6349C64.1087 27.749 64.4133 27.8042 64.7197 27.7973C65.026 27.7904 65.3278 27.7215 65.6068 27.5948C65.8858 27.468 66.1362 27.286 66.3429 27.0598C67.6369 25.7657 66.8356 23.8241 65.505 23.0504C63.854 21.7472 61.3579 21.9954 59.1061 22.2194L59.106 22.2194C58.8209 22.2478 58.5398 22.2757 58.2649 22.3001L56.7987 23.5822C57.8055 24.6123 58.7211 25.7387 59.5308 26.9504C62.5498 31.4689 63.9088 36.8944 63.3761 42.3025C63.0934 45.1727 62.2872 47.9437 61.0183 50.4868C59.9479 52.6337 58.56 54.5938 56.9105 56.3055L58.4649 57.7221C58.6762 57.7419 58.8905 57.7632 59.1071 57.7847L59.1081 57.7848L59.1083 57.7849C61.3597 58.009 63.8482 58.2567 65.5012 56.9533C66.8318 56.1797 67.6331 54.238 66.3391 52.944C66.1324 52.7177 65.882 52.5358 65.603 52.409C65.324 52.2822 65.0223 52.2133 64.7159 52.2064C64.4095 52.1995 64.1049 52.2547 63.8205 52.3688C63.5361 52.4829 63.2778 52.6534 63.0611 52.8701C62.8444 53.0868 62.6739 53.3451 62.5598 53.6296C62.4457 53.914 62.3905 54.2185 62.3974 54.5249C62.4043 54.8313 62.4732 55.1331 62.5999 55.4121C62.7267 55.691 62.9087 55.9414 63.1349 56.1482L63.1362 56.1494C63.1881 56.2013 63.2371 56.242 63.2804 56.278C63.4105 56.386 63.4881 56.4504 63.4323 56.6433C62.8342 56.449 62.2909 56.1151 61.8472 55.6694C57.7976 51.621 64.1719 45.99 68.8377 50.652C71.0742 52.8885 71.0289 56.5602 68.7369 58.8521C66.7904 60.7966 63.0543 60.4958 60.4332 59.5159L62.4264 61.3323C63.5593 60.7167 65.0621 60.9355 66.0846 61.958C66.1732 62.0474 66.2573 62.1412 66.3366 62.239C65.5012 62.4015 64.5512 62.9181 63.7372 63.7334C62.9232 64.5486 62.4054 65.4923 62.2441 66.3328C62.1448 66.2547 62.0497 66.1714 61.9593 66.0833C60.936 65.0578 60.715 63.5521 61.3339 62.4206L59.4531 60.2697C60.481 62.896 60.8356 66.7484 58.8484 68.7356C56.5565 71.0275 52.8848 71.0729 50.6483 68.8364C45.9863 64.1744 51.6198 57.7962 55.6682 61.8459C56.1142 62.2893 56.4481 62.8327 56.6422 63.431C56.4521 63.487 56.386 63.4083 56.2758 63.2771C56.2399 63.2343 56.1993 63.1859 56.1482 63.1349C55.9415 62.9086 55.6911 62.7266 55.4121 62.5999C55.1331 62.4731 54.8314 62.4042 54.525 62.3973C54.2186 62.3904 53.914 62.4456 53.6296 62.5597C53.3452 62.6738 53.0869 62.8443 52.8702 63.061C52.6535 63.2777 52.483 63.536 52.3689 63.8204C52.2548 64.1049 52.1996 64.4094 52.2065 64.7158C52.2134 65.0222 52.2823 65.324 52.4091 65.6029C52.5358 65.8819 52.7178 66.1323 52.944 66.339C54.2381 67.6331 56.1797 66.8317 56.9534 65.5011C58.2574 63.8505 58.0089 61.3553 57.7847 59.1039C57.7565 58.8215 57.7288 58.5429 57.7046 58.2702L56.4192 56.8004C55.9153 57.2931 55.3888 57.7636 54.8414 58.21C53.0756 59.652 51.1054 60.8312 48.9913 61.7068C47.9264 62.1479 46.8329 62.5087 45.7198 62.7875C42.3666 63.6299 38.8451 63.7275 35.4081 63.043C30.9778 62.1607 26.9158 60.0242 23.6914 56.9151L22.2711 58.4732C22.2519 58.6794 22.2312 58.8885 22.2104 59.0997C21.9876 61.3536 21.7412 63.847 23.0404 65.5024C23.814 66.833 25.7557 67.6344 27.0497 66.3404C27.2759 66.1336 27.4579 65.8832 27.5847 65.6043C27.7114 65.3253 27.7804 65.0235 27.7873 64.7171C27.7942 64.4107 27.7389 64.1062 27.6248 63.8217C27.5108 63.5373 27.3402 63.279 27.1236 63.0623C26.9069 62.8456 26.6485 62.6751 26.3641 62.561C26.0797 62.4469 25.7751 62.3917 25.4687 62.3986C25.1624 62.4055 24.8606 62.4744 24.5816 62.6012C24.3026 62.7279 24.0522 62.9099 23.8455 63.1362H23.8505C23.7985 63.1882 23.7577 63.2375 23.7218 63.2808C23.6143 63.4106 23.5502 63.488 23.3566 63.4323C23.5512 62.8342 23.885 62.291 24.3306 61.8472C28.3802 57.7975 34.0162 64.1719 29.3504 68.8377C27.1139 71.0742 23.4436 71.0288 21.1516 68.7369C19.2064 66.7916 19.5044 63.0591 20.4793 60.439L18.6684 62.4256C19.284 63.5558 19.0642 65.0635 18.0419 66.0858C17.9528 66.1747 17.859 66.2589 17.7609 66.3378C17.5984 65.5024 17.0805 64.5524 16.2666 63.7384C15.4526 62.9244 14.5076 62.4066 13.6672 62.244C13.7452 62.1451 13.8285 62.0505 13.9167 61.9605C14.9427 60.9377 16.4459 60.7217 17.5773 61.3368L19.7351 59.4499C17.1086 60.4812 13.2481 60.8396 11.2581 58.8496C8.96614 56.5577 8.92078 52.8861 11.1573 50.6496C15.8193 45.9876 22.1974 51.621 18.149 55.6694C17.7049 56.1152 17.1612 56.449 16.5627 56.6434C16.5066 56.4533 16.5853 56.3872 16.7166 56.277C16.7594 56.2411 16.8077 56.2006 16.8588 56.1495C17.085 55.9428 17.267 55.6923 17.3938 55.4134C17.5206 55.1344 17.5895 54.8326 17.5964 54.5262C17.6033 54.2199 17.548 53.9153 17.434 53.6309C17.3199 53.3464 17.1494 53.0881 16.9327 52.8714C16.716 52.6547 16.4576 52.4842 16.1732 52.3701C15.8888 52.256 15.5842 52.2008 15.2778 52.2077C14.9715 52.2146 14.6697 52.2835 14.3907 52.4103C14.1117 52.5371 13.8613 52.7191 13.6546 52.9453C12.3606 54.2393 13.1619 56.181 14.4938 56.9546C16.1445 58.2586 18.6399 58.0101 20.8907 57.7859C21.1752 57.7575 21.4558 57.7296 21.7302 57.7052L23.1962 56.4232C22.7221 55.9381 22.2677 55.431 21.8346 54.9031C18.388 50.7013 16.5048 45.4345 16.506 40C16.502 36.9148 17.1077 33.8592 18.2884 31.0088C19.4148 28.2891 21.0435 25.8075 23.0879 23.693ZM48.0061 6.84178C46.149 6.87556 44.355 7.52082 42.9018 8.6776C42.1884 9.24296 41.5998 9.94997 41.1731 10.7541C40.654 11.7621 40.5733 12.8419 40.6439 13.952C40.7699 13.9709 40.8896 13.9872 41.0118 14.0024C41.1828 14.0234 41.3549 14.0335 41.5272 14.0326C41.7502 13.0511 42.1811 12.0078 43.145 11.5542C43.7952 11.2493 44.5373 11.2253 45.2391 11.311C45.3471 11.324 45.4553 11.3389 45.5635 11.3538C45.9679 11.4095 46.3738 11.4654 46.7814 11.4257C47.3491 11.3631 47.8849 11.1308 48.3186 10.7591C48.551 10.5688 48.7703 10.349 48.9912 10.1277C49.4516 9.6664 49.9186 9.19846 50.5248 8.97622C51.3967 8.65744 52.1716 9.02662 52.8609 9.53944C52.4525 8.67419 51.7907 7.95353 50.9633 7.47304C50.0523 6.96778 49.0368 6.82288 48.0061 6.84178ZM40.6703 14.5983C40.8883 14.6298 41.1063 14.6601 41.3281 14.6777C41.8762 14.7206 42.5251 14.6878 42.7771 14.0213C42.9913 14.3917 43.1588 14.8718 42.806 15.2132C42.4847 15.5207 41.9492 15.5963 41.5259 15.6467C40.5074 15.7399 39.4825 15.7399 38.4641 15.6467C38.042 15.5975 37.5052 15.5244 37.1839 15.2132C36.8362 14.8718 36.9987 14.3917 37.2142 14.0213C37.4712 14.6891 38.1201 14.7206 38.6632 14.679C38.8621 14.6618 39.0611 14.6343 39.26 14.6067L39.2601 14.6067L39.2601 14.6067L39.2601 14.6067L39.2602 14.6067L39.2602 14.6067L39.2603 14.6067L39.2603 14.6067L39.2603 14.6067L39.2604 14.6067L39.2604 14.6067L39.2604 14.6067L39.2605 14.6067L39.2605 14.6067L39.2605 14.6067L39.2606 14.6067L39.2606 14.6067L39.2606 14.6067L39.2607 14.6067L39.2607 14.6066L39.2607 14.6066L39.2608 14.6066L39.2608 14.6066L39.2608 14.6066L39.2609 14.6066L39.2609 14.6066L39.2609 14.6066L39.261 14.6066L39.261 14.6066L39.261 14.6066L39.2611 14.6066L39.3209 14.5983L39.4053 14.5857L39.4054 14.5857C39.5162 14.5694 39.6271 14.553 39.7392 14.5404C39.9085 14.512 40.0814 14.512 40.2508 14.5404C40.3629 14.5542 40.4738 14.5694 40.5859 14.5857L40.6703 14.5983ZM71.18 66.3617C71.1799 66.3616 71.18 66.3617 71.1802 66.3619C71.1952 66.3754 71.9938 67.0978 73.8916 65.1988C74.6476 64.4428 75.5397 61.2865 73.8916 63.0694C73.0648 63.9635 71.7779 63.5565 70.2799 63.0827C69.059 62.6965 67.698 62.266 66.3316 62.4595C65.1675 62.6234 64.6389 63.256 64.1834 63.8011C64.1241 63.8719 64.0661 63.9414 64.0081 64.0081C63.9473 64.0599 63.8844 64.1119 63.8201 64.165C63.2689 64.6201 62.6229 65.1534 62.4571 66.3315C62.2636 67.6964 62.6938 69.0566 63.0799 70.2771C63.5538 71.7753 63.9612 73.0632 63.0669 73.8915C61.284 75.5383 64.4365 74.6475 65.1976 73.8915C67.1241 71.965 66.3505 71.1712 66.3593 71.18C67.3811 72.2019 71.5996 73.6597 73.6408 73.6433C73.6585 71.6021 72.1994 67.3836 71.1775 66.3617H71.18ZM67.2501 68.4269C66.1501 67.3256 65.3853 66.1085 65.0539 65.0539C66.1085 65.3852 67.3219 66.1488 68.4269 67.25C69.532 68.3513 70.2917 69.5672 70.6219 70.6218C69.5672 70.2904 68.3501 69.5269 67.2501 68.4269ZM8.82 13.6395C8.82013 13.6396 8.82009 13.6396 8.81988 13.6394C8.80555 13.6264 8.00827 12.9014 6.10848 14.8012C5.35248 15.5572 4.46166 18.7135 6.10848 16.9319C6.93541 16.0369 8.22298 16.4443 9.72137 16.9184C10.9422 17.3047 12.3029 17.7352 13.6685 17.5417C14.8474 17.3743 15.3823 16.7263 15.8386 16.1734C15.8904 16.1105 15.9413 16.0489 15.9919 15.9894C16.0521 15.9382 16.1144 15.8868 16.178 15.8344L16.178 15.8344L16.178 15.8344C16.7304 15.3788 17.377 14.8457 17.5443 13.666C17.7377 12.3019 17.3074 10.9421 16.9212 9.72163C16.447 8.22299 16.0393 6.93444 16.9344 6.10595C18.7161 4.45913 15.5648 5.34995 14.8037 6.10595C12.9039 8.00577 13.6289 8.80305 13.6419 8.81735L13.642 8.81742C13.6421 8.81752 13.6421 8.81756 13.6421 8.81754L13.642 8.81748C12.6189 7.79562 8.40042 6.33779 6.35922 6.35417C6.34284 8.39538 7.80066 12.6139 8.82252 13.637L8.82 13.6395ZM12.7512 11.5744C13.8512 12.6743 14.616 13.8915 14.9461 14.9461C13.8915 14.6147 12.6781 13.8512 11.5744 12.7512C10.4706 11.6512 9.70956 10.4328 9.37818 9.37818C10.4328 9.70956 11.65 10.4731 12.7512 11.5744ZM66.3617 8.82C66.3616 8.82013 66.3617 8.82008 66.3619 8.81987C66.3751 8.80524 67.0982 8.0079 65.2 6.10848C64.444 5.35248 61.2865 4.46165 63.0694 6.10848C63.9636 6.93533 63.5564 8.22275 63.0826 9.72096C62.6964 10.9419 62.266 12.3028 62.4595 13.6685C62.6256 14.8458 63.273 15.3808 63.8247 15.8367C63.8882 15.8892 63.9505 15.9407 64.0106 15.9919C64.0672 16.0575 64.1238 16.1255 64.1816 16.195C64.6381 16.7436 65.1665 17.3787 66.3353 17.5442C67.6993 17.7377 69.0588 17.3074 70.2791 16.9212C71.7776 16.447 73.0661 16.0392 73.8953 16.9344C75.5434 18.716 74.6513 15.5648 73.8953 14.8037C71.9971 12.9043 71.1986 13.6286 71.1839 13.6419L71.1838 13.642C72.2056 12.6189 73.6647 8.40042 73.6471 6.35922C71.6059 6.34284 67.3874 7.80066 66.3655 8.82252L66.3617 8.82ZM68.4269 12.7512C67.3257 13.8512 66.1085 14.6147 65.0539 14.9461C65.3852 13.8915 66.1501 12.6781 67.2501 11.5744C68.35 10.4706 69.5672 9.70956 70.6218 9.37818C70.2917 10.4328 69.5269 11.65 68.4269 12.7512ZM13.6396 71.18C13.6397 71.1799 13.6397 71.1799 13.6395 71.1801C13.6262 71.1948 12.9019 71.9933 14.8013 73.8915C15.5573 74.6475 18.7136 75.5383 16.932 73.8915C16.037 73.0646 16.4443 71.7776 16.9184 70.2795C17.3046 69.0587 17.7353 67.6978 17.5418 66.3315C17.3763 65.164 16.7413 64.6357 16.1927 64.1793L16.1925 64.1791L16.1923 64.1789L16.1918 64.1785L16.1908 64.1777C16.122 64.1204 16.0545 64.0642 15.9895 64.0081C15.9377 63.9473 15.8858 63.8844 15.8328 63.8202L15.8326 63.82C15.3774 63.2688 14.8441 62.6229 13.666 62.457C12.3018 62.2636 10.9419 62.6937 9.7213 63.0798C8.22283 63.5537 6.93443 63.9612 6.10602 63.0668C4.4592 61.2839 5.35002 64.4352 6.10602 65.1962C8.00542 67.0956 8.80276 66.3726 8.81741 66.3593L8.81754 66.3592C7.79568 67.3811 6.33786 71.5996 6.35424 73.6408C8.39544 73.6572 12.6139 72.1993 13.637 71.1775L13.6396 71.18ZM11.5744 67.25C12.6744 66.1488 13.8916 65.3852 14.9462 65.0539C14.6161 66.1085 13.8512 67.3219 12.7513 68.4269C11.6513 69.5319 10.4329 70.2904 9.37824 70.6218C9.70962 69.5672 10.4732 68.35 11.5744 67.25ZM42.9006 71.3236C44.3542 72.4802 46.1488 73.125 48.0061 73.1582C49.0355 73.1783 50.0511 73.0322 50.9633 72.5269C51.7904 72.0461 52.4521 71.3255 52.8609 70.4605C52.1704 70.9734 51.3955 71.3425 50.5248 71.0237C49.9177 70.8015 49.451 70.3336 48.991 69.8723C48.7702 69.651 48.551 69.4312 48.3186 69.2408C47.8843 68.8701 47.3489 68.6379 46.7814 68.5743C46.3741 68.5345 45.9683 68.5905 45.5642 68.6461H45.5641H45.5641H45.564H45.564H45.5639H45.5639H45.5638H45.5637H45.5637H45.5636H45.5636H45.5635C45.4553 68.661 45.3471 68.6759 45.2391 68.689C44.5373 68.7734 43.7952 68.752 43.1437 68.4458C42.1798 67.9922 41.7502 66.9489 41.5272 65.9674C41.3549 65.9662 41.1827 65.9768 41.0118 65.9989C40.8883 66.0127 40.7699 66.0291 40.6439 66.048C40.5733 67.1581 40.6527 68.2391 41.1731 69.2472C41.5996 70.051 42.1877 70.758 42.9006 71.3236ZM31.9939 73.1582C33.8514 73.1247 35.646 72.4794 37.0994 71.3224C37.8125 70.757 38.4007 70.05 38.8269 69.2459C39.346 68.2379 39.4279 67.1581 39.3561 66.048C39.2301 66.0291 39.1117 66.0128 38.9882 65.9976C38.8172 65.9766 38.6451 65.9665 38.4728 65.9674C38.2498 66.9489 37.8189 67.9922 36.855 68.4458C36.2048 68.7507 35.469 68.7747 34.7609 68.689C34.6529 68.676 34.5448 68.6611 34.4366 68.6462L34.4365 68.6462H34.4364H34.4364H34.4363H34.4363H34.4362H34.4361H34.4361H34.436H34.436H34.4359H34.4359C34.0317 68.5905 33.6259 68.5346 33.2186 68.5743C32.6509 68.6369 32.1151 68.8692 31.6814 69.2409C31.449 69.4312 31.2299 69.6509 31.0092 69.8722L31.0091 69.8722L31.009 69.8724C30.549 70.3336 30.0823 70.8015 29.4752 71.0238C28.6045 71.3426 27.8296 70.9734 27.1391 70.4606C27.5479 71.3255 28.2096 72.0461 29.0367 72.527C29.9489 73.0322 30.9632 73.1771 31.9939 73.1582ZM39.2663 65.3934L39.2656 65.3933C39.0666 65.3657 38.8684 65.3383 38.667 65.3223C38.1252 65.2782 37.4763 65.3122 37.218 65.9787C37.0038 65.6083 36.8362 65.1282 37.189 64.7868C37.5103 64.4793 38.0458 64.4037 38.4691 64.3533C39.4876 64.2601 40.5125 64.2601 41.5309 64.3533L41.5464 64.3553C41.9672 64.4104 42.4937 64.4793 42.8111 64.7868C43.1601 65.1282 42.9963 65.6083 42.7821 65.9787C42.5238 65.3109 41.8749 65.2794 41.3319 65.321C41.1126 65.3399 40.8934 65.3714 40.6741 65.4029L40.5897 65.4142C40.4788 65.4306 40.368 65.447 40.2558 65.4596C40.0865 65.488 39.9136 65.488 39.7443 65.4596C39.6321 65.4457 39.5212 65.4306 39.4091 65.4142C39.3259 65.4016 39.3625 65.4092 39.3259 65.4016L39.2663 65.3934ZM41.6116 71.7054C42.0034 73.2418 41.9821 74.8545 41.5499 76.38C41.4512 76.7276 41.3339 77.0695 41.1983 77.4044C40.8828 78.1792 40.4808 78.9159 40.0001 79.6006C39.5224 78.9151 39.1226 78.1784 38.8081 77.4044C38.6729 77.0694 38.5556 76.7275 38.4566 76.38C38.0243 74.8545 38.003 73.2418 38.3948 71.7054C38.7125 70.5091 39.2556 69.3843 39.995 68.3916L40.0064 68.3765L40.0177 68.3929C40.7548 69.3856 41.2958 70.5099 41.6116 71.7054ZM8.67635 42.9018C7.52002 44.3551 6.8752 46.1492 6.84179 48.0061C6.82289 49.0355 6.96779 50.051 7.47305 50.9633C7.95384 51.7907 8.67438 52.4528 9.53945 52.8621C9.02663 52.1716 8.65745 51.3967 8.97623 50.5261C9.19846 49.919 9.66638 49.4523 10.1276 48.9922C10.349 48.7715 10.5687 48.5522 10.7591 48.3198C11.1299 47.8855 11.3621 47.3501 11.4257 46.7826C11.4658 46.3712 11.4085 45.9566 11.3523 45.5503L11.3522 45.5502C11.3379 45.4463 11.3236 45.343 11.311 45.2403C11.2266 44.531 11.248 43.7964 11.5542 43.145C12.0078 42.1811 13.0511 41.7514 14.0326 41.5271C14.0341 41.3553 14.024 41.1835 14.0024 41.013C13.9873 40.8896 13.9709 40.7711 13.952 40.6451C12.8419 40.5746 11.7621 40.6539 10.7541 41.1743C9.94985 41.6008 9.24246 42.1889 8.67635 42.9018ZM6.84179 31.994C6.87556 33.851 7.52083 35.6451 8.67761 37.0982C9.24262 37.812 9.94971 38.4007 10.7541 38.827C11.7621 39.3461 12.8419 39.4267 13.952 39.3562C13.9709 39.2302 13.9885 39.1117 14.0024 38.9882C14.0246 38.8174 14.0347 38.6452 14.0326 38.4729C13.0511 38.2499 12.0078 37.819 11.5542 36.8551C11.2493 36.2049 11.2253 35.4691 11.311 34.7609C11.324 34.6531 11.3389 34.5452 11.3538 34.4372L11.3538 34.4371L11.3538 34.437L11.3538 34.4369L11.3538 34.4369L11.3538 34.4368L11.3538 34.4367L11.3538 34.4366C11.4095 34.0322 11.4654 33.6262 11.4257 33.2187C11.3631 32.6509 11.1308 32.1152 10.7591 31.6815C10.569 31.4493 10.3494 31.2302 10.1284 31.0095C9.66699 30.5489 9.19898 30.0818 8.97749 29.4752C8.65745 28.6033 9.02663 27.8297 9.53945 27.1392C8.67447 27.548 7.95391 28.2097 7.47305 29.0367C6.96779 29.9477 6.82289 30.9633 6.84179 31.994ZM14.5984 39.3246C14.6299 39.1066 14.6602 38.8887 14.6791 38.6669C14.7206 38.1251 14.6891 37.4762 14.0213 37.2179C14.3918 37.0037 14.8718 36.8361 15.2133 37.1889C15.5207 37.5102 15.5976 38.0457 15.6467 38.4691C15.7406 39.4879 15.7406 40.5133 15.6467 41.5321C15.5976 41.9542 15.5245 42.4897 15.2133 42.811C14.8718 43.1601 14.3918 42.9963 14.0213 42.7821C14.6891 42.5238 14.7206 41.8749 14.6791 41.3318C14.6619 41.1326 14.6343 40.9333 14.6067 40.7341L14.6067 40.7341L14.6067 40.734L14.6067 40.734L14.6067 40.734L14.6067 40.7339L14.6067 40.7339L14.5984 40.6741L14.5935 40.6595C14.5927 40.6567 14.5923 40.6551 14.5922 40.6535L14.5921 40.65C14.5921 40.6441 14.5921 40.6325 14.5858 40.5909C14.5694 40.4788 14.5543 40.3679 14.5405 40.2558C14.5121 40.0864 14.5121 39.9135 14.5405 39.7442C14.5543 39.6321 14.5694 39.5212 14.5858 39.409C14.5921 39.3668 14.5953 39.3552 14.5968 39.3493L14.5977 39.3457L14.5981 39.3436L14.5983 39.3412L14.5984 39.3316L14.5984 39.3246ZM8.29458 41.6115C6.75817 42.0033 5.1455 41.982 3.61998 41.5498C3.2725 41.4524 2.93054 41.3363 2.5956 41.202C1.82102 40.886 1.08435 40.4841 0.399414 40.0038C1.08447 39.5243 1.82114 39.1233 2.5956 38.808C2.9304 38.6723 3.27237 38.5549 3.61998 38.4565C5.1455 38.0243 6.75817 38.003 8.29458 38.3948C9.49115 38.7119 10.616 39.255 11.6084 39.995L11.6235 40.0063L11.6084 40.0176C10.6152 40.7548 9.49047 41.2958 8.29458 41.6115ZM71.3237 37.0995C72.48 35.6462 73.1248 33.8521 73.1582 31.9952C73.1784 30.9645 73.0335 29.949 72.527 29.0367C72.0458 28.2099 71.3253 27.5483 70.4606 27.1392C70.9734 27.8297 71.3426 28.6046 71.0238 29.4752C70.8015 30.0826 70.3332 30.5501 69.8721 31.0103C69.6512 31.2308 69.4319 31.4497 69.2422 31.6815C68.871 32.1157 68.6384 32.6511 68.5744 33.2187C68.5345 33.6269 68.5907 34.0342 68.6465 34.439L68.6465 34.4395L68.6466 34.44L68.6467 34.4405L68.6467 34.441C68.6615 34.5479 68.6762 34.6545 68.689 34.7609C68.7734 35.464 68.752 36.2049 68.4458 36.8563C67.9922 37.8202 66.949 38.2499 65.9674 38.4742C65.9664 38.646 65.9769 38.8178 65.9989 38.9882C66.0101 39.0879 66.0238 39.1843 66.0379 39.2841L66.0481 39.3562C67.1594 39.4267 68.2392 39.3473 69.2472 38.827C70.0511 38.4005 70.758 37.8123 71.3237 37.0995ZM73.1583 48.006C73.1245 46.149 72.4792 44.3549 71.3224 42.9018C70.7571 42.1883 70.0501 41.5997 69.246 41.173C68.238 40.6539 67.1594 40.5733 66.0481 40.6438C66.0292 40.7698 66.0128 40.8895 65.9977 41.0118C65.9765 41.1827 65.9668 41.3549 65.9687 41.5271C66.949 41.7501 67.9923 42.181 68.4459 43.1449C68.7508 43.7951 68.7747 44.5372 68.689 45.2403C68.676 45.3477 68.6612 45.4553 68.6464 45.563C68.5906 45.9671 68.5346 46.3734 68.5744 46.7813C68.6381 47.3488 68.8702 47.8842 69.2409 48.3185C69.4313 48.551 69.6511 48.7703 69.8724 48.9912C70.3336 49.4515 70.8016 49.9185 71.0238 50.5248C71.3426 51.3967 70.9734 52.1716 70.4606 52.8608C71.3259 52.4524 72.0465 51.7906 72.527 50.9633C73.0323 50.051 73.1784 49.0367 73.1583 48.006ZM65.3943 40.7227L65.3943 40.7229L65.3942 40.723C65.3663 40.9235 65.3384 41.1242 65.3222 41.3281C65.2794 41.8749 65.3121 42.5238 65.9799 42.7771C65.6082 42.9913 65.1282 43.1589 64.7867 42.8061C64.4793 42.4848 64.4037 41.9493 64.3533 41.5259C64.26 40.5074 64.26 39.4826 64.3533 38.4641L64.3553 38.4487C64.4103 38.0278 64.4792 37.5013 64.7867 37.1839C65.1282 36.8349 65.6082 36.9987 65.9787 37.2129C65.3109 37.4712 65.2794 38.1201 65.3209 38.6632C65.3398 38.8821 65.3713 39.1011 65.4027 39.3201L65.4028 39.3209L65.4142 39.4053L65.4143 39.4059C65.4306 39.5166 65.447 39.6273 65.4595 39.7392C65.4879 39.9086 65.4879 40.0814 65.4595 40.2508C65.4457 40.3629 65.4306 40.4738 65.4142 40.5859C65.4079 40.6282 65.4063 40.6402 65.4055 40.6461L65.405 40.6498L65.4016 40.6703L65.3943 40.7227ZM71.7054 38.3885C73.2418 37.9967 74.8545 38.018 76.38 38.4502C76.7276 38.5486 77.0696 38.666 77.4044 38.8018C78.179 39.1178 78.9156 39.5197 79.6006 40C78.9161 40.4821 78.1794 40.8853 77.4044 41.2021C77.0698 41.3384 76.7278 41.4557 76.38 41.5536C74.8549 41.9858 73.2427 42.0071 71.7067 41.6153C70.5097 41.2984 69.3844 40.7552 68.3916 40.0151L68.3765 40.0038L68.3916 39.9925C69.3842 39.252 70.5089 38.7076 71.7054 38.3885ZM37.8258 62.0609C32.7223 61.5588 27.9508 59.3026 24.3243 55.6769V55.6757C22.2628 53.6196 20.6278 51.1764 19.5133 48.4864C18.3989 45.7965 17.8269 42.9129 17.8303 40.0013C17.8303 34.8732 19.6084 29.9037 22.8616 25.9397C26.1148 21.9756 30.6418 19.2621 35.6714 18.2615C40.7009 17.261 45.9218 18.0353 50.4444 20.4525C54.9671 22.8697 58.5117 26.7802 60.4744 31.5178C62.4371 36.2555 62.6964 41.5271 61.2081 46.4345C59.7199 51.3418 56.5761 55.5814 52.3125 58.4307C48.0489 61.2801 42.9292 62.563 37.8258 62.0609Z" fill="#FBB4C1"/>
</svg>
