<svg width="220" height="222" viewBox="0 0 220 222" fill="none" xmlns="http://www.w3.org/2000/svg">
<path fill-rule="evenodd" clip-rule="evenodd" d="M146.447 44.3384C144.918 29.8978 139.131 16.2377 129.82 5.09436C152.495 -8.09896 174.473 10.47 167.015 30.1699C167.082 30.3356 168.222 28.8681 170.021 26.5531L170.021 26.553L170.022 26.5525L170.022 26.5522C174.628 20.6233 183.553 9.13688 189.829 5.28284C198.557 -0.0764372 208.603 -1.57605 218.224 1.79193L218.191 1.82469C221.564 11.446 220.054 21.4749 214.7 30.2031C210.839 36.4955 199.325 45.4368 193.405 50.0347L193.404 50.0349C191.106 51.82 189.65 52.9504 189.813 53.0169C209.512 45.5598 228.09 67.5378 214.896 90.2287C203.766 80.8922 190.106 75.0837 175.661 73.5444C168.221 72.8045 160.711 73.3086 153.437 75.0358C149.117 75.9753 144.905 77.3559 140.868 79.156L140.85 79.1737L140.856 79.1614L140.809 79.1823L140.877 79.1145C142.683 75.0815 144.066 70.8722 145.005 66.554C146.701 59.2781 147.189 51.7725 146.447 44.3384ZM176.685 210.952C165.335 218.556 150.306 224.62 136.818 219.245C117.749 211.656 115.61 190.67 117.347 172.945C117.33 173.002 117.302 173.056 117.264 173.102C117.226 173.149 117.179 173.187 117.126 173.215C100.737 182.656 101.81 229.365 140.137 227.3C140.234 227.293 140.332 227.318 140.415 227.37C140.498 227.422 140.562 227.498 140.599 227.589C140.636 227.679 140.644 227.779 140.621 227.874C140.599 227.97 140.547 228.055 140.473 228.119C139.469 229.186 138.574 230.35 137.801 231.594C133.573 238.969 143.693 239.928 148.749 239.985C155.43 240.118 162.099 239.361 168.58 237.732C187.428 232.692 212.626 200.93 203.817 180.787C198.154 193.022 187.797 203.511 176.685 210.952ZM86.8962 169.265C109.333 88.5892 189.476 84.2133 197.015 154.408C201.301 194.824 146.012 215.327 136.457 186.892C133.698 178.72 135.712 169.491 137.529 161.166L137.529 161.166C137.671 160.516 137.812 159.872 137.949 159.235C145.471 186.58 160.033 183.606 168.908 174.051C174.497 168.003 173.816 157.891 171.079 150.795C169.478 146.698 167.07 142.964 163.998 139.815C160.927 136.667 157.255 134.166 153.199 132.463C145.701 129.407 136.81 130.398 129.508 133.578C122.363 136.683 116.815 142.461 112.463 148.787C105.224 159.325 100.708 171.428 96.2229 183.445C94.2347 188.773 92.2529 194.083 90.043 199.233C84.2576 212.623 76.9398 225.972 62.9516 232.011C47.2261 238.805 29.7224 234.961 14.1527 229.299C43.4648 230.766 79.7505 195.013 86.8962 169.265ZM0.754498 83.1641C-4.62936 69.6429 1.44283 54.6468 9.03924 43.2973C16.4718 32.1854 26.9609 21.8274 39.2528 16.1649C19.1104 7.35568 -12.6355 32.5541 -17.6834 51.4017C-19.3411 57.8781 -20.1156 64.5488 -19.9861 71.2327C-19.9451 76.2888 -18.9863 86.4091 -11.6112 82.1807C-10.3604 81.4176 -9.19556 80.5219 -8.13666 79.5093C-8.07265 79.4352 -7.98699 79.3831 -7.89179 79.3604C-7.79659 79.3377 -7.69666 79.3454 -7.60609 79.3825C-7.51553 79.4197 -7.43894 79.4843 -7.3871 79.5673C-7.33526 79.6504 -7.31081 79.7476 -7.3172 79.8452C-9.38225 118.171 37.3352 119.245 46.7672 102.856C46.7963 102.8 46.837 102.752 46.8865 102.714C46.936 102.676 46.9931 102.649 47.0541 102.634C29.3127 104.372 8.32632 102.233 0.754498 83.1641ZM65.5742 23.0327C135.769 30.5062 131.459 110.715 50.7174 133.086C24.9699 140.232 -10.7832 176.518 -9.31636 205.83C-14.9788 190.26 -18.8221 172.757 -12.0206 157.039C-5.98934 143.059 7.3433 135.692 20.7579 129.94C25.9087 127.729 31.2204 125.748 36.5489 123.76C48.5651 119.278 60.6672 114.763 71.2039 107.519C77.5384 103.168 83.3238 97.6283 86.4131 90.4744C89.5926 83.173 90.5842 74.2901 87.5276 66.7838C85.8209 62.7276 83.3177 59.0551 80.1661 55.9837C77.0145 52.9124 73.2787 50.5047 69.1799 48.9031C62.0997 46.1743 51.9712 45.486 45.9235 51.0747C36.4014 59.9495 33.4104 74.5113 60.764 82.034C60.1055 82.1744 59.44 82.3187 58.7686 82.4643C50.4665 84.2646 41.2567 86.2617 33.099 83.5172C4.66366 73.9705 25.1584 18.6814 65.5742 23.0327ZM194.443 106.871C182.553 90.4739 146.906 91.9653 129.001 97.3984C189.641 61.2273 236.932 123.17 210.078 129.374C204.277 130.701 201.646 124.219 200.179 119.909C200.025 119.449 199.875 118.991 199.725 118.536C198.363 114.408 197.078 110.51 194.443 106.871ZM122.584 90.9583C128.034 73.0203 129.509 37.4065 113.111 25.4915C109.438 22.8467 105.515 21.5497 101.347 20.172L101.346 20.172C100.93 20.0344 100.511 19.8959 100.09 19.7553C95.7633 18.2885 89.2814 15.658 90.6089 9.8644C96.8122 -16.9484 158.755 30.3264 122.584 90.9583ZM-1.29458 221.252C20.9217 216.795 41.3173 205.85 57.3133 189.801C73.3579 173.807 84.2999 153.414 88.756 131.202C66.5573 135.7 46.1766 146.641 30.1607 162.657C14.1448 178.673 3.20394 199.053 -1.29458 221.252Z" fill="url(#paint0_linear_20_356)" fill-opacity="0.6"/>
<defs>
<linearGradient id="paint0_linear_20_356" x1="220" y1="2.29454e-06" x2="0.500008" y2="218" gradientUnits="userSpaceOnUse">
<stop stop-color="white"/>
<stop offset="1" stop-color="white" stop-opacity="0"/>
</linearGradient>
</defs>
</svg>
