<svg width="178" height="178" viewBox="0 0 178 178" fill="none" xmlns="http://www.w3.org/2000/svg">
<path fill-rule="evenodd" clip-rule="evenodd" d="M73.5374 133.662C75.066 148.102 80.8534 161.762 90.1643 172.906C67.4898 186.099 45.5118 167.53 52.9689 147.83C52.9022 147.664 51.762 149.132 49.9633 151.447L49.9632 151.447L49.9628 151.447L49.9625 151.448C45.3559 157.377 36.4312 168.863 30.1551 172.717C21.4279 178.076 11.3812 179.576 1.76077 176.208L1.79352 176.175C-1.57986 166.554 -0.070097 156.525 5.2847 147.797C9.14513 141.505 20.659 132.563 26.5799 127.965L26.5801 127.965C28.8788 126.18 30.3345 125.05 30.1717 124.983C10.4719 132.44 -8.10528 110.462 5.08805 87.7713C16.2183 97.1078 29.878 102.916 44.3239 104.456C51.7632 105.195 59.2739 104.691 66.5476 102.964C70.8674 102.025 75.0791 100.644 79.1166 98.844L79.1343 98.8263L79.1288 98.8386L79.1756 98.8177L79.1077 98.8855C77.3017 102.919 75.9182 107.128 74.9796 111.446C73.283 118.722 72.7958 126.227 73.5374 133.662ZM43.2998 -32.9516C54.6493 -40.5562 69.6783 -46.6202 83.1666 -41.2445C102.235 -33.6563 104.374 -12.6699 102.637 5.05506C102.654 4.99753 102.682 4.94397 102.72 4.89753C102.758 4.85109 102.805 4.81272 102.858 4.78464C119.247 -4.65556 118.174 -51.3648 79.8477 -49.2998C79.7501 -49.2934 79.6529 -49.3179 79.5698 -49.3697C79.4868 -49.4215 79.4222 -49.4982 79.3851 -49.5887C79.348 -49.6793 79.3402 -49.7792 79.3629 -49.8744C79.3857 -49.9696 79.4377 -50.0553 79.5118 -50.1193C80.5157 -51.1857 81.4106 -52.3496 82.1832 -53.5938C86.4116 -60.969 76.2913 -61.9277 71.2352 -61.9851C64.5541 -62.1184 57.8851 -61.3606 51.4043 -59.7316C32.5567 -54.6919 7.35822 -22.9296 16.1674 -2.78719C21.8299 -15.0217 32.1879 -25.5109 43.2998 -32.9516ZM133.088 8.73481C110.651 89.4108 30.508 93.7867 22.9689 23.5916C18.6832 -16.8242 73.9722 -37.3271 83.5271 -8.89183C86.2865 -0.720152 84.2721 8.5092 82.4551 16.8339L82.455 16.8341C82.3133 17.4836 82.1727 18.1275 82.0357 18.765C74.5131 -8.58043 59.9512 -5.60577 51.0764 3.94914C45.4877 9.99678 46.1679 20.1089 48.9049 27.2055C50.5067 31.3022 52.9146 35.0357 55.9861 38.1846C59.0575 41.3334 62.7299 43.8336 66.7855 45.5368C74.2836 48.5934 83.1748 47.6019 90.4762 44.4224C97.6219 41.3166 103.17 35.5394 107.521 29.2131C114.76 18.6755 119.277 6.57219 123.761 -5.44506C125.75 -10.7725 127.732 -16.0831 129.941 -21.2329C135.727 -34.6229 143.045 -47.9719 157.033 -54.0114C172.758 -60.8047 190.262 -56.9614 205.832 -51.2989C176.52 -52.7658 140.234 -17.0127 133.088 8.73481ZM219.23 94.8359C224.614 108.357 218.542 123.353 210.945 134.703C203.513 145.815 193.024 156.173 180.732 161.835C200.874 170.644 232.62 145.446 237.668 126.598C239.325 120.122 240.1 113.451 239.97 106.767C239.929 101.711 238.971 91.5909 231.596 95.8193C230.345 96.5824 229.18 97.4781 228.121 98.4907C228.057 98.5648 227.971 98.6169 227.876 98.6396C227.781 98.6623 227.681 98.6546 227.59 98.6175C227.5 98.5803 227.423 98.5157 227.371 98.4327C227.32 98.3496 227.295 98.2524 227.302 98.1548C229.367 59.8285 182.649 58.755 173.217 75.1443C173.188 75.1996 173.147 75.248 173.098 75.2862C173.048 75.3244 172.991 75.3515 172.93 75.3655C190.672 73.6283 211.658 75.7671 219.23 94.8359ZM154.41 154.967C84.2151 147.494 88.5254 67.2849 169.267 44.9136C195.014 37.7679 230.768 1.48213 229.301 -27.83C234.963 -12.2602 238.806 5.24345 232.005 20.9607C225.974 34.9407 212.641 42.3077 199.227 48.0603C194.076 50.2707 188.764 52.2521 183.435 54.2398C171.419 58.7223 159.317 63.2368 148.78 70.4808C142.446 74.8321 136.661 80.3717 133.571 87.5256C130.392 94.827 129.4 103.71 132.457 111.216C134.163 115.272 136.667 118.945 139.818 122.016C142.97 125.088 146.706 127.495 150.805 129.097C157.885 131.826 168.013 132.514 174.061 126.925C183.583 118.051 186.574 103.489 159.22 95.966C159.879 95.8256 160.544 95.6813 161.216 95.5357C169.518 93.7354 178.728 91.7383 186.885 94.4828C215.321 104.03 194.826 159.319 154.41 154.967ZM25.5414 71.1286C37.4318 87.5261 73.0783 86.0346 90.9836 80.6016C30.3434 116.773 -16.9477 54.8295 9.90606 48.6262C15.7079 47.2987 18.3383 53.7806 19.8052 58.091C19.9589 58.5514 20.1098 59.0091 20.2598 59.464C21.6209 63.5915 22.9063 67.4897 25.5414 71.1286ZM97.4001 87.0417C91.9506 104.98 90.4756 140.593 106.873 152.508C110.546 155.153 114.47 156.45 118.638 157.828L118.638 157.828C119.054 157.966 119.473 158.104 119.894 158.245C124.221 159.712 130.703 162.342 129.375 168.136C123.172 194.948 61.229 147.674 97.4001 87.0417ZM221.279 -43.2521C199.063 -38.7948 178.667 -27.8498 162.671 -11.8012C146.627 4.19334 135.684 24.5859 131.228 46.7985C153.427 42.3 173.808 31.3592 189.824 15.3432C205.84 -0.672687 216.78 -21.0534 221.279 -43.2521Z" fill="url(#paint0_linear_20_366)" fill-opacity="0.4"/>
<defs>
<linearGradient id="paint0_linear_20_366" x1="-0.015625" y1="178" x2="219.484" y2="-40" gradientUnits="userSpaceOnUse">
<stop stop-color="white"/>
<stop offset="1" stop-color="white" stop-opacity="0"/>
</linearGradient>
</defs>
</svg>
