<svg width="16" height="16" viewBox="0 0 16 16" fill="none" xmlns="http://www.w3.org/2000/svg">
<path fill-rule="evenodd" clip-rule="evenodd" d="M7.998 0H8.002C12.413 0 16 3.589 16 8C16 12.411 12.413 16 8.002 16C6.375 16 4.866 15.516 3.601 14.678L0.526 15.661L1.523 12.689C0.564 11.372 0 9.75 0 8C0 3.588 3.587 0 7.998 0ZM11.087 12.4259C11.698 12.2939 12.464 11.8419 12.657 11.2969C12.85 10.7509 12.85 10.2859 12.794 10.1869C12.7488 10.1084 12.6418 10.0569 12.4822 9.98005C12.4407 9.96004 12.3955 9.93831 12.347 9.91393C12.112 9.79694 10.969 9.23194 10.753 9.15693C10.541 9.07693 10.339 9.10494 10.179 9.33094C10.1486 9.37354 10.1182 9.41623 10.088 9.45869C9.89497 9.73017 9.70877 9.99204 9.55398 10.1589C9.41298 10.3089 9.18298 10.3279 8.98998 10.2479C8.96894 10.2392 8.94483 10.2294 8.91781 10.2185C8.61223 10.0951 7.93443 9.82135 7.11398 9.09093C6.42198 8.47494 5.95198 7.70794 5.81598 7.47794C5.68245 7.24721 5.79763 7.11191 5.90408 6.98687C5.90605 6.98456 5.90802 6.98224 5.90998 6.97994C5.97861 6.89502 6.04521 6.82431 6.11215 6.75325C6.16029 6.70213 6.20861 6.65084 6.25798 6.59394C6.26531 6.58548 6.27245 6.57729 6.27939 6.5693C6.38422 6.44877 6.44664 6.37699 6.51698 6.22694C6.59698 6.07194 6.53998 5.91194 6.48298 5.79394C6.44376 5.7113 6.20149 5.12347 5.99351 4.61886C5.90452 4.40295 5.82182 4.20228 5.76398 4.06294C5.60898 3.69194 5.49098 3.67794 5.25598 3.66794C5.24878 3.66758 5.24151 3.66721 5.23416 3.66684C5.15988 3.66308 5.07807 3.65894 4.98798 3.65894C4.68198 3.65894 4.36298 3.74894 4.16998 3.94594C4.16324 3.95282 4.15621 3.95997 4.14891 3.96739C3.902 4.2185 3.35198 4.77788 3.35198 5.89294C3.35198 7.01015 4.14469 8.09137 4.29136 8.29142C4.2954 8.29693 4.29895 8.30178 4.30198 8.30593C4.31081 8.31753 4.32744 8.34162 4.35165 8.37667C4.65113 8.81037 6.10981 10.9228 8.28498 11.8239C10.123 12.5859 10.669 12.5149 11.087 12.4259Z" fill="#30323D"/>
</svg>
